<?xml version="1.0" encoding="UTF-8"?>
<svg version="1.1" xmlns="http://www.w3.org/2000/svg" width="755" height="755">
<path d="M0 0 C0 0.66 0 1.32 0 2 C0.763125 2.28875 1.52625 2.5775 2.3125 2.875 C7.66162438 5.11416834 10.44299787 8.63144884 14 13 C14.51046875 13.61101562 15.0209375 14.22203125 15.546875 14.8515625 C22.52378899 23.59068672 25.90566746 32.92175685 27 44 C27.12568359 45.19689453 27.12568359 45.19689453 27.25390625 46.41796875 C28.00171253 60.81927038 22.25750912 75.64205278 12.8125 86.25 C5.19354989 94.40755988 -1.05250248 97.56722277 -12 100 C-12 136.3 -12 172.6 -12 210 C-10.68 209.67 -9.36 209.34 -8 209 C-8 209.66 -8 210.32 -8 211 C-7.21625 211.04125 -6.4325 211.0825 -5.625 211.125 C4.98205172 213.68532283 13.42875085 221.4766799 19.390625 230.30078125 C27.05956831 243.16301384 28.45882108 259.64214659 24.875 274.125 C20.25747605 287.65691045 11.95154059 297.93234432 -0.03125 305.625 C-3 307 -3 307 -12 309 C-11.67 338.37 -11.34 367.74 -11 398 C-8.03 398.66 -5.06 399.32 -2 400 C-2 400.66 -2 401.32 -2 402 C-1.12214844 402.24878906 -0.24429687 402.49757813 0.66015625 402.75390625 C11.40183055 406.76161865 18.36719393 416.19619437 23.0546875 426.265625 C27.85633069 438.246868 27.54068446 453.00422013 23 465 C17.42924058 476.80470448 9.7680794 485.22532907 -2 491 C-2.66 491 -3.32 491 -4 491 C-4.33 491.66 -4.66 492.32 -5 493 C-7.31 493.33 -9.62 493.66 -12 494 C-11.67 510.17 -11.34 526.34 -11 543 C-8.03 543.33 -5.06 543.66 -2 544 C-2 544.66 -2 545.32 -2 546 C-1.195625 546.185625 -0.39125 546.37125 0.4375 546.5625 C8.3332653 549.74851056 14.69875633 555.66258433 19 563 C19 563.66 19 564.32 19 565 C19.66 565 20.32 565 21 565 C21.65161012 566.87300025 22.29602195 568.7485055 22.9375 570.625 C23.29714844 571.66914062 23.65679687 572.71328125 24.02734375 573.7890625 C28.60705414 588.90762452 26.10471392 604.3553903 18.78515625 618.11328125 C11.61682306 629.70496227 1.25930818 637.31842227 -11.73046875 641.28515625 C-18.3887453 642.74090847 -26.48220937 644.17259688 -33 642 C-33.33 642.66 -33.66 643.32 -34 644 C-34 643.34 -34 642.68 -34 642 C-34.96486328 642.01353516 -34.96486328 642.01353516 -35.94921875 642.02734375 C-46.8800879 641.66869897 -56.3471329 636.3847246 -64.2265625 628.9375 C-74.01771176 618.2405616 -78.20923852 606.98886173 -78.0625 592.6875 C-78.05798828 591.85154297 -78.05347656 591.01558594 -78.04882812 590.15429688 C-78.03710548 588.10283351 -78.01917203 586.05140727 -78 584 C-78.680625 583.76410156 -79.36125 583.52820313 -80.0625 583.28515625 C-83.6514249 581.71500161 -86.7777758 579.63687521 -90 577.4375 C-90.66008057 576.99204834 -91.32016113 576.54659668 -92.00024414 576.08764648 C-97.78372266 572.1748648 -103.52434737 568.20010299 -109.25634766 564.21240234 C-117.95213328 558.16601878 -126.64775418 552.17303724 -135.62109375 546.54296875 C-138.50154159 544.67469798 -141.22136624 542.64702597 -143.94140625 540.5546875 C-147.87496327 537.58399359 -151.94831483 534.80629014 -156 532 C-158.25258885 533.11291801 -160.48133282 534.25633933 -162.69921875 535.4375 C-177.17436917 543.0062061 -190.59776169 544.00290569 -206.44921875 539.328125 C-219.43167304 534.4722015 -228.70398644 525.1853079 -235 513 C-239.98447319 500.79420522 -239.94301951 484.8618277 -235.16796875 472.640625 C-234 470 -234 470 -232.0703125 466.640625 C-230.70197868 463.29005522 -230.70197868 463.29005522 -231.63110352 461.18457031 C-232.86633386 459.17342006 -234.22359259 457.35137154 -235.6875 455.5 C-236.72403099 454.09867208 -237.7591539 452.69630168 -238.79296875 451.29296875 C-239.32712402 450.58446777 -239.8612793 449.8759668 -240.41162109 449.14599609 C-242.8998623 445.78423154 -245.19899198 442.30386481 -247.5 438.8125 C-247.90822998 438.20148438 -248.31645996 437.59046875 -248.73706055 436.9609375 C-255 427.56587443 -255 427.56587443 -255 425 C-255.66 425 -256.32 425 -257 425 C-257.5775 423.824375 -258.155 422.64875 -258.75 421.4375 C-262.18362901 414.24126419 -262.18362901 414.24126419 -267 408 C-268.08097759 405.95782882 -269.1152085 403.8907918 -270.125 401.8125 C-273.10430704 395.72389729 -276.24291967 389.73910176 -279.51025391 383.80004883 C-282 379.21455064 -282 379.21455064 -282 377 C-282.66 376.67 -283.32 376.34 -284 376 C-284 375.01 -284 374.02 -284 373 C-284.61875 373.165 -285.2375 373.33 -285.875 373.5 C-298.69213703 375.55074192 -311.54017179 372.69802862 -322.2734375 365.46875 C-331.58470693 358.66317101 -339.03716137 348.57263858 -341.6484375 337.16796875 C-343.41379771 321.26011177 -342.05361935 307.04773004 -332 294 C-331.38125 293.113125 -330.7625 292.22625 -330.125 291.3125 C-325.18411084 285.93565004 -318.85255578 281.58300329 -312 279 C-311.01 279 -310.02 279 -309 279 C-308.67 278.01 -308.34 277.02 -308 276 C-306.02 276 -304.04 276 -302 276 C-301.731875 274.7625 -301.46375 273.525 -301.1875 272.25 C-293.53201312 238.00617368 -280.41650079 203.9241502 -261.07421875 174.4921875 C-260.36543579 173.40587036 -260.36543579 173.40587036 -259.64233398 172.29760742 C-258.73607064 170.92414888 -257.81310554 169.56151929 -256.87133789 168.2121582 C-255.45976164 166.17011988 -255.45976164 166.17011988 -254 163 C-254.47030134 160.22984492 -254.47030134 160.22984492 -256 158 C-262.53496976 146.23705444 -266.28494147 132.28189849 -263.5625 118.83984375 C-262.86472089 116.78575649 -261.97205099 114.94061792 -261 113 C-260.54753906 111.94167969 -260.09507812 110.88335937 -259.62890625 109.79296875 C-253.83828819 96.97584533 -245.79014288 88.48978452 -232.75 82.92578125 C-230 82 -230 82 -227 82 C-226.67 81.34 -226.34 80.68 -226 80 C-198.55990703 79.0856819 -198.55990703 79.0856819 -187.91796875 85.1953125 C-185.41024653 86.24743221 -184.57720005 85.84603218 -182 85 C-179.99193396 84.03352742 -178.0074227 83.0176235 -176.0390625 81.97265625 C-174.84377862 81.34337826 -173.64837996 80.71431824 -172.45288086 80.08544922 C-171.82832001 79.75510681 -171.20375916 79.4247644 -170.56027222 79.08441162 C-157.5824286 72.2315208 -144.46381691 65.8512894 -131 60 C-130.32549805 59.70351562 -129.65099609 59.40703125 -128.95605469 59.1015625 C-119.60546875 55 -119.60546875 55 -116 55 C-116 54.34 -116 53.68 -116 53 C-115.17757812 52.75765625 -114.35515625 52.5153125 -113.5078125 52.265625 C-108.2722699 50.69375309 -103.10447583 49.12116512 -98.0625 47 C-92.77808722 44.79380126 -87.32597138 43.32273285 -81.80859375 41.83203125 C-79.11922075 41.27826525 -79.11922075 41.27826525 -78 40 C-77.58470662 37.87871727 -77.19327939 35.75274907 -76.8125 33.625 C-74.15202107 21.07364965 -67.63364632 10.47026477 -57.10546875 2.92578125 C-38.4216373 -8.51476766 -20.04441285 -7.25745983 0 0 Z M-78.59326172 71.73413086 C-79.69428223 72.14026611 -80.79530273 72.54640137 -81.9296875 72.96484375 C-82.53919754 73.18895432 -83.14870758 73.41306488 -83.77668762 73.64396667 C-85.81340568 74.39834037 -87.84448086 75.166606 -89.875 75.9375 C-90.92743393 76.33373566 -90.92743393 76.33373566 -92.00112915 76.73797607 C-109.66185408 83.40873835 -126.85312039 91.11772578 -144 99 C-145.19109375 99.54591797 -146.3821875 100.09183594 -147.609375 100.65429688 C-150.64094369 102.04975237 -153.66635313 103.4571448 -156.6875 104.875 C-157.96983521 105.47272217 -157.96983521 105.47272217 -159.27807617 106.08251953 C-163.33124601 107.76016526 -163.33124601 107.76016526 -166 111 C-165.57345274 112.55704664 -165.08201912 114.09645929 -164.5625 115.625 C-161.56369773 126.07954002 -162.37423417 136.5841115 -165 147 C-164.51233154 147.29656494 -164.02466309 147.59312988 -163.5222168 147.89868164 C-144.29314956 159.60008199 -144.29314956 159.60008199 -136 165 C-135.14825195 165.55421631 -135.14825195 165.55421631 -134.27929688 166.11962891 C-126.40700926 171.25813841 -118.77070715 176.55537059 -111.390625 182.3828125 C-109.06689835 184.28015468 -109.06689835 184.28015468 -106 184 C-105.67 184.99 -105.34 185.98 -105 187 C-102.76578037 188.91320339 -102.76578037 188.91320339 -99.9375 190.875 C-94.8102628 194.60161457 -89.84524985 198.48886391 -84.9375 202.5 C-84.25905029 203.05397461 -83.58060059 203.60794922 -82.8815918 204.17871094 C-80.91932714 205.78370581 -78.95923099 207.39130398 -77 209 C-74.91699674 210.70873671 -72.8335794 212.41696562 -70.75 214.125 C-69.50476563 215.14980469 -69.50476563 215.14980469 -68.234375 216.1953125 C-66.18960273 217.84685934 -64.11412363 219.43865181 -62 221 C-60.948125 220.18595703 -60.948125 220.18595703 -59.875 219.35546875 C-51.17753844 212.79692097 -51.17753844 212.79692097 -46.375 211.3125 C-45.26125 210.879375 -44.1475 210.44625 -43 210 C-41.30450106 205.30290887 -41.86788505 199.82079157 -41.88647461 194.88549805 C-41.88632858 193.87039658 -41.88618256 192.8552951 -41.8860321 191.80943298 C-41.88672777 188.46017303 -41.89450403 185.11096896 -41.90234375 181.76171875 C-41.90420916 179.43715953 -41.90563248 177.11259992 -41.90663147 174.78804016 C-41.91044698 168.67409171 -41.92026905 162.56016708 -41.93133545 156.44622803 C-41.94157032 150.20569175 -41.94613354 143.96515163 -41.95117188 137.72460938 C-41.96189216 125.48306246 -41.97895701 113.24153321 -42 101 C-42.8760791 100.54399414 -43.7521582 100.08798828 -44.65478516 99.61816406 C-46.39187744 98.70115723 -46.39187744 98.70115723 -48.1640625 97.765625 C-49.3082666 97.16524414 -50.4524707 96.56486328 -51.63134766 95.94628906 C-60.10979329 91.04774082 -65.71822607 84.67149342 -70.625 76.28515625 C-72.7672758 72.72483994 -74.34289503 70.53088734 -78.59326172 71.73413086 Z M-189.5625 173.875 C-202.38552181 180.4417533 -214.16993424 178.75310693 -228 177 C-246.62886736 207.91742774 -266.95101856 242.8554689 -273 279 C-272.45472656 279.21914063 -271.90945313 279.43828125 -271.34765625 279.6640625 C-262.47755174 283.39405516 -251.51047704 288.97904592 -247 298 C-240.36690052 297.34170842 -234.1108186 295.89492967 -227.6640625 294.2265625 C-226.02158035 293.80754669 -226.02158035 293.80754669 -224.34591675 293.38006592 C-220.77101062 292.46658118 -217.19799278 291.54593752 -213.625 290.625 C-211.12703115 289.98488424 -208.62898345 289.34507613 -206.13085938 288.70556641 C-189.90729053 284.54649333 -173.69972521 280.32713056 -157.50463867 276.05859375 C-148.1992742 273.60836983 -138.88509313 271.19673856 -129.55859375 268.828125 C-128.50519806 268.5604129 -127.45180237 268.29270081 -126.3664856 268.01687622 C-121.26763755 266.72186309 -116.16780634 265.43091823 -111.06640625 264.14599609 C-102.41255054 261.95893396 -93.77423149 259.72639233 -85.19140625 257.2734375 C-84.4731517 257.0733609 -83.75489716 256.8732843 -83.01487732 256.66714478 C-81.32407271 256.1728457 -79.65830273 255.59429273 -78 255 C-76.403599 251.80719799 -76.57959828 249.5254741 -77 246 C-79.02457703 243.69850514 -80.73648504 242.08360745 -83.125 240.25 C-84.08007446 239.4770459 -84.08007446 239.4770459 -85.05444336 238.68847656 C-87.02095821 237.10518123 -89.00865277 235.55188094 -91 234 C-92.10426674 233.11633268 -93.20720786 232.23100536 -94.30859375 231.34375 C-97.16728136 229.05481141 -100.05648139 226.80804091 -102.95800781 224.57373047 C-104.40498681 223.45856708 -105.84939445 222.34006358 -107.29199219 221.21923828 C-123.52801915 208.61027115 -140.12996785 196.51479258 -157.53662109 185.56274414 C-159.88162668 184.0750949 -162.19517736 182.54898239 -164.5 181 C-165.21542969 180.52304688 -165.93085938 180.04609375 -166.66796875 179.5546875 C-168.40295137 178.39803242 -170.13412728 177.23566319 -171.86328125 176.0703125 C-172.83652344 175.42835938 -173.80976563 174.78640625 -174.8125 174.125 C-175.70582031 173.52945313 -176.59914063 172.93390625 -177.51953125 172.3203125 C-182.31708377 169.76665462 -185.19283022 171.4428802 -189.5625 173.875 Z M-76.36889648 285.07885742 C-77.31062714 285.31772171 -78.25235779 285.556586 -79.22262573 285.8026886 C-80.26162018 286.06760605 -81.30061462 286.3325235 -82.37109375 286.60546875 C-83.45343292 286.88057785 -84.53577209 287.15568695 -85.65090942 287.43913269 C-89.24681289 288.35379573 -92.84219036 289.27050575 -96.4375 290.1875 C-97.67724579 290.50334045 -98.91699158 290.81918091 -100.19430542 291.14459229 C-119.323424 296.01892371 -138.43666957 300.9522601 -157.53833008 305.93310547 C-175.39317811 310.58825761 -193.25794261 315.20448171 -211.125 319.8125 C-212.53842205 320.17706135 -213.95184369 320.54162433 -215.36526489 320.90618896 C-223.2433399 322.9381189 -231.12158132 324.96940293 -239 327 C-239.2568457 328.08539063 -239.51369141 329.17078125 -239.77832031 330.2890625 C-240.12793571 331.73445232 -240.47788856 333.17976054 -240.828125 334.625 C-240.99586426 335.33785156 -241.16360352 336.05070312 -241.33642578 336.78515625 C-243.90568052 347.3034198 -248.91974906 354.84262036 -257 362 C-243.25575899 391.02510524 -225.24465809 417.66111077 -207 444 C-206.10539062 443.7834375 -205.21078125 443.566875 -204.2890625 443.34375 C-190.3235994 440.12782246 -180.57531923 441.22720657 -167 445 C-166.57332031 444.35417969 -166.14664063 443.70835937 -165.70703125 443.04296875 C-160.84671418 435.71741869 -155.89814754 428.45633978 -150.92333984 421.20825195 C-147.55290362 416.29064259 -144.22467384 411.34855554 -140.9375 406.375 C-137.51283178 401.19936321 -133.97775328 396.11555719 -130.375 391.0625 C-125.52702227 384.25688222 -120.86431011 377.34087113 -116.25 370.375 C-108.91839126 359.31115986 -101.37529701 348.40687489 -93.76757812 337.53173828 C-89.98813902 332.11837039 -86.25536212 326.6732932 -82.52783203 321.22412109 C-80.70249187 318.5669065 -78.86446392 315.91861425 -77.02734375 313.26953125 C-75.64305143 311.26314345 -74.25893592 309.25663365 -72.875 307.25 C-72.21040771 306.29601318 -71.54581543 305.34202637 -70.86108398 304.35913086 C-69.93598022 303.01347046 -69.93598022 303.01347046 -68.9921875 301.640625 C-68.16243408 300.44228027 -68.16243408 300.44228027 -67.31591797 299.21972656 C-66.04139089 297.06981929 -65.31833866 295.4713475 -65 293 C-66.14381447 290.56235939 -66.14381447 290.56235939 -67.875 288.25 C-68.42929687 287.45078125 -68.98359375 286.6515625 -69.5546875 285.828125 C-70.27011719 284.92320312 -70.27011719 284.92320312 -71 284 C-72.83325629 284 -74.60195536 284.62964242 -76.36889648 285.07885742 Z M-44 316 C-50.76400791 323.97423481 -56.24624239 333.27964802 -62 342 C-66.56692429 348.90052234 -71.19383263 355.75479933 -75.875 362.578125 C-83.02778099 373.01938657 -90.11411147 383.50485156 -97.1875 394 C-97.81696533 394.93344238 -98.44643066 395.86688477 -99.0949707 396.82861328 C-107.47625687 409.25797481 -115.84079244 421.69797724 -124.1171875 434.19750977 C-127.35627134 439.0807095 -130.6315358 443.92797512 -134.01171875 448.71484375 C-134.63498047 449.60236328 -135.25824219 450.48988281 -135.90039062 451.40429688 C-137.05059251 453.03469233 -138.21127701 454.65776873 -139.38476562 456.27148438 C-140.12823242 457.32625977 -140.12823242 457.32625977 -140.88671875 458.40234375 C-141.32201904 459.00554443 -141.75731934 459.60874512 -142.20581055 460.23022461 C-143.25009529 462.55731348 -142.86104035 463.64251031 -142 466 C-141.173609 467.75328901 -140.33939022 469.50289711 -139.5 471.25 C-135.42693483 480.90729654 -134.74916908 491.76738871 -137.625 501.88671875 C-138.10934023 504.61617777 -137.81372145 506.34467199 -137 509 C-135.15795515 510.8846468 -135.15795515 510.8846468 -132.71484375 512.42578125 C-131.80387939 513.0492041 -130.89291504 513.67262695 -129.9543457 514.31494141 C-128.95878662 514.97413574 -127.96322754 515.63333008 -126.9375 516.3125 C-125.90906982 517.01036621 -124.88063965 517.70823242 -123.82104492 518.42724609 C-120.55819758 520.63480839 -117.28120491 522.81983461 -114 525 C-111.94525602 526.3710091 -109.89056718 527.74210085 -107.8359375 529.11328125 C-104.83328075 531.11505242 -101.82898127 533.11409852 -98.8190918 535.10498047 C-91.18253453 540.16590159 -83.66940535 545.38595266 -76.24145508 550.74853516 C-75.47599365 551.29429199 -74.71053223 551.84004883 -73.921875 552.40234375 C-73.25768555 552.88179443 -72.59349609 553.36124512 -71.90917969 553.85522461 C-69.89690011 555.06182038 -68.32574458 555.69652385 -66 556 C-63.87875144 554.52146353 -63.87875144 554.52146353 -61.875 552.375 C-57.50590625 548.24501088 -51.36047468 543 -45 543 C-44.67 542.34 -44.34 541.68 -44 541 C-43.34 541.33 -42.68 541.66 -42 542 C-42 526.16 -42 510.32 -42 494 C-47.28 491.36 -52.56 488.72 -58 486 C-67.6119524 479.34557142 -73.60211028 468.36391217 -76 457 C-77.99315167 444.31461417 -76.84232539 430.52005786 -69.40625 419.67578125 C-68.35473944 418.29443365 -67.27893516 416.93099098 -66.171875 415.59375 C-64.80253652 414.06115197 -64.80253652 414.06115197 -65 412 C-64.401875 411.72800781 -63.80375 411.45601563 -63.1875 411.17578125 C-61.05082976 410.027321 -59.71378773 408.87897278 -58 407.1875 C-54 404 -54 404 -42 399 C-42 371.61 -42 344.22 -42 316 C-42.66 316 -43.32 316 -44 316 Z " fill="#009CFB" transform="translate(410,51)"/>
<path d="M0 0 C10.56020928 10.87807511 14.55412282 23.8293173 14.515625 38.82421875 C14.04143674 46.13290306 12.62462841 53.62946364 8.5234375 59.78125 C8.87843963 63.39037714 10.06832032 66.19404269 11.74609375 69.37890625 C12.19815186 70.25208496 12.65020996 71.12526367 13.1159668 72.02490234 C13.84360229 73.42023193 13.84360229 73.42023193 14.5859375 74.84375 C27.7571587 100.70824754 39.30589828 129.95008273 42.328125 159 C42.8646325 171.86328266 42.8646325 171.86328266 47.90234375 183.17578125 C50.67074817 185.31272764 53.51473163 187.00709464 56.5234375 188.78125 C75.59504433 207.91398378 79.66786967 231.79237249 79.6541748 257.76126099 C79.63946217 263.10155558 79.59166205 268.44136715 79.5234375 273.78125 C80.29075195 273.61359131 81.05806641 273.44593262 81.84863281 273.27319336 C89.64858158 271.83864637 97.12860151 274.52630066 103.5859375 278.7578125 C109.64095547 285.08139981 110.16500876 291.97809673 110.2734375 300.40625 C110.31573486 302.16545776 110.31573486 302.16545776 110.35888672 303.96020508 C110.44548704 308.23401151 110.49034081 312.50675882 110.5234375 316.78125 C110.53473694 318.11268036 110.53473694 318.11268036 110.54626465 319.4710083 C110.60308457 326.47023031 110.63299459 333.46932195 110.6484375 340.46875 C110.65129761 341.44749084 110.65415771 342.42623169 110.65710449 343.43463135 C110.72663814 377.3039021 110.72663814 377.3039021 107.3984375 390.34375 C107.17961914 391.22232666 106.96080078 392.10090332 106.73535156 393.00610352 C101.23748754 414.00436019 89.48757407 434.05286541 72.5234375 447.78125 C71.41742187 448.73451172 71.41742187 448.73451172 70.2890625 449.70703125 C47.14425062 469.18346608 18.22240437 475.93815821 -11.4765625 473.78125 C-33.59816835 471.22610094 -53.83765672 462.55361187 -70.4765625 447.78125 C-71.2396875 447.14960937 -72.0028125 446.51796875 -72.7890625 445.8671875 C-76.84273299 442.48416102 -79.68752608 439.31343419 -82.4765625 434.78125 C-84.52728515 432.03048146 -86.59321201 429.29221592 -88.671875 426.5625 C-90.53344537 423.69358635 -91.4264906 421.01509974 -92.4765625 417.78125 C-93.1365625 417.45125 -93.7965625 417.12125 -94.4765625 416.78125 C-97.7662826 410.59059491 -99.59793402 403.50231098 -101.7265625 396.84375 C-102.13213379 395.58232178 -102.13213379 395.58232178 -102.54589844 394.29541016 C-102.79629883 393.49796387 -103.04669922 392.70051758 -103.3046875 391.87890625 C-103.5305957 391.16226807 -103.75650391 390.44562988 -103.98925781 389.70727539 C-104.4765625 387.78125 -104.4765625 387.78125 -104.4765625 384.78125 C-104.54673834 382.82069918 -104.62274777 380.86035525 -104.7019043 378.90014648 C-105.39785453 360.62495268 -105.60519939 342.39750047 -105.34448242 324.11108398 C-105.29394613 320.49306012 -105.26856011 316.87526799 -105.24805164 313.25696659 C-105.22766715 310.41275319 -105.18982361 307.56896312 -105.147192 304.7250042 C-105.12185904 302.75103836 -105.11458041 300.77686659 -105.10786438 298.80274963 C-104.94143042 290.09394758 -103.81599776 284.62160054 -97.9765625 277.90625 C-91.82902314 273.26039964 -82.80260134 273.74500658 -75.4765625 273.78125 C-75.48703613 272.79431152 -75.49750977 271.80737305 -75.50830078 270.79052734 C-75.54504402 267.05928305 -75.56765629 263.32805402 -75.58642578 259.59667969 C-75.59636163 257.99476414 -75.60991497 256.39286611 -75.62744141 254.79101562 C-75.86485822 232.50176636 -72.91789639 208.62979959 -56.4765625 191.78125 C-55.8165625 191.78125 -55.1565625 191.78125 -54.4765625 191.78125 C-54.1465625 190.79125 -53.8165625 189.80125 -53.4765625 188.78125 C-52.8165625 188.78125 -52.1565625 188.78125 -51.4765625 188.78125 C-51.4765625 188.12125 -51.4765625 187.46125 -51.4765625 186.78125 C-35.72970651 172.82127128 -17.01173882 166.4473738 3.92578125 166.61328125 C7.15669438 166.82219744 10.32443811 167.29060592 13.5234375 167.78125 C13.29269531 166.91886719 13.06195312 166.05648437 12.82421875 165.16796875 C12.49808594 163.94722656 12.17195312 162.72648438 11.8359375 161.46875 C11.65369629 160.79432861 11.47145508 160.11990723 11.28369141 159.42504883 C10.3041135 155.78335805 9.36138621 152.13938544 8.49609375 148.46875 C4.0664175 130.06341481 -2.93000023 112.3088417 -11.296875 95.34375 C-12.4765625 92.78125 -12.4765625 92.78125 -12.4765625 90.78125 C-13.1365625 90.45125 -13.7965625 90.12125 -14.4765625 89.78125 C-15.546875 87.93359375 -15.546875 87.93359375 -16.6015625 85.71875 C-16.95476562 84.98527344 -17.30796875 84.25179687 -17.671875 83.49609375 C-17.93742188 82.93019531 -18.20296875 82.36429687 -18.4765625 81.78125 C-19.05664062 81.91402344 -19.63671875 82.04679687 -20.234375 82.18359375 C-22.64581011 82.72875317 -25.06063514 83.25639679 -27.4765625 83.78125 C-28.86875 84.090625 -28.86875 84.090625 -30.2890625 84.40625 C-43.60026328 85.97227362 -57.12091697 84.24330232 -67.94140625 75.875 C-77.9055254 67.36429372 -83.37915529 58.07347164 -87.4765625 45.78125 C-88.22699582 29.09754762 -84.68610521 13.90057422 -73.22265625 1.3046875 C-52.5522686 -18.53623034 -21.34103841 -19.11941611 0 0 Z M-30.73828125 215.29296875 C-40.81267087 228.34684513 -41.65047566 241.22686438 -41.6015625 257.15625 C-41.60542969 258.43886719 -41.60929688 259.72148437 -41.61328125 261.04296875 C-41.61199219 262.26371094 -41.61070312 263.48445313 -41.609375 264.7421875 C-41.60824707 265.85384277 -41.60711914 266.96549805 -41.60595703 268.11083984 C-41.65779972 270.75494297 -41.65779972 270.75494297 -40.4765625 272.78125 C-29.42848466 272.80438508 -18.38041255 272.82217106 -7.33231544 272.83306217 C-2.20265474 272.83828844 2.92698944 272.84538146 8.05664062 272.85668945 C13.00383289 272.8675274 17.95100922 272.87352877 22.89821243 272.87612724 C24.78891882 272.87797985 26.67962431 272.88159733 28.57032394 272.88698006 C31.21145283 272.8942025 33.85251523 272.89524043 36.49365234 272.89477539 C37.28127457 272.89837067 38.06889679 272.90196594 38.88038635 272.90567017 C42.83085289 272.98230226 42.83085289 272.98230226 46.5234375 271.78125 C47.4449507 240.13450269 47.4449507 240.13450269 32.15234375 213.33984375 C29.03105298 210.32084036 29.03105298 210.32084036 25.5234375 207.78125 C23.25919399 207.90688582 23.25919399 207.90688582 21.5234375 208.78125 C21.5234375 207.79125 21.5234375 206.80125 21.5234375 205.78125 C3.98306132 197.12696748 -17.54662754 200.64317024 -30.73828125 215.29296875 Z M-19.4765625 323.78125 C-24.02345221 330.34656807 -26.30941815 337.29828363 -25.1015625 345.25 C-23.22292654 352.85847562 -19.03562321 359.40854286 -12.4765625 363.78125 C-12.93482728 371.96221159 -14.8109419 379.52652202 -16.9765625 387.40625 C-17.61681958 389.75128797 -18.25236432 392.09761846 -18.8828125 394.4453125 C-19.16447266 395.47092285 -19.44613281 396.4965332 -19.73632812 397.55322266 C-20.58285401 401.24476794 -21.00679803 405.02313425 -21.4765625 408.78125 C-5.6365625 408.78125 10.2034375 408.78125 26.5234375 408.78125 C25.0796875 403.295 23.6359375 397.80875 22.1484375 392.15625 C21.69678223 390.43583496 21.24512695 388.71541992 20.77978516 386.94287109 C20.41584434 385.56343586 20.05175881 384.1840388 19.6875 382.8046875 C19.50340576 382.10126221 19.31931152 381.39783691 19.12963867 380.6730957 C18.30672951 377.56348003 17.43010011 374.50625031 16.39599609 371.45947266 C15.50749408 368.73231341 15.35598932 366.62786913 15.5234375 363.78125 C16.0803125 363.53375 16.6371875 363.28625 17.2109375 363.03125 C19.96504229 361.54254471 22.21518264 359.89715028 24.5234375 357.78125 C24.5234375 356.79125 24.5234375 355.80125 24.5234375 354.78125 C25.1834375 354.45125 25.8434375 354.12125 26.5234375 353.78125 C30.42909233 347.31968869 30.4418355 341.13663397 29.5234375 333.78125 C28.23840855 330.45712996 26.64162695 327.64080576 24.5234375 324.78125 C23.8634375 324.78125 23.2034375 324.78125 22.5234375 324.78125 C22.2965625 324.20375 22.0696875 323.62625 21.8359375 323.03125 C18.63127397 317.5375411 13.79282369 315.89082774 7.93359375 314.3203125 C-2.35633607 312.01883711 -12.36467952 316.30465507 -19.4765625 323.78125 Z " fill="#009CFB" transform="translate(559.4765625,127.21875)"/>
<path d="M0 0 C2.06907114 3.1036067 2.24955688 3.75926469 2.24291992 7.27197266 C2.24753487 8.55812973 2.24753487 8.55812973 2.25224304 9.87026978 C2.24505753 10.79222137 2.23787201 11.71417297 2.23046875 12.6640625 C2.23001053 13.61187592 2.22955231 14.55968933 2.2290802 15.53622437 C2.22605981 17.53848524 2.21817988 19.5407438 2.20581055 21.54296875 C2.18753044 24.61987558 2.18530103 27.69648199 2.18554688 30.7734375 C2.1806326 32.71614845 2.17480467 34.65885736 2.16796875 36.6015625 C2.16685593 37.52756256 2.1657431 38.45356262 2.16459656 39.40762329 C2.15821671 40.25875702 2.15183685 41.10989075 2.14526367 41.98681641 C2.13954597 43.11574814 2.13954597 43.11574814 2.13371277 44.26748657 C2 46 2 46 1 47 C-1.37291441 47.15977229 -3.74871857 47.2773446 -6.125 47.375 C-13.11655451 47.766481 -18.23204438 48.15723477 -23.3125 53.375 C-26.94972276 59.03290207 -27.23808851 63.44469547 -27.0625 70 C-26.8523851 79.58746518 -26.8523851 79.58746518 -28 84 C-28.66 84 -29.32 84 -30 84 C-30.11710979 80.00025019 -30.18755489 76.00094719 -30.25 72 C-30.28351563 70.87464844 -30.31703125 69.74929688 -30.3515625 68.58984375 C-30.45226298 59.97995248 -29.27031747 54.76086508 -23.5 48.125 C-17.35246064 43.47914964 -8.32603884 43.96375658 -1 44 C-1.00785522 42.48031616 -1.00785522 42.48031616 -1.01586914 40.92993164 C-1.03411234 37.13355408 -1.04550191 33.33718031 -1.05493164 29.54077148 C-1.05992803 27.90469712 -1.06672739 26.26862715 -1.07543945 24.63256836 C-1.16225376 7.89783459 -1.16225376 7.89783459 0 0 Z " fill="#0067AE" transform="translate(485,357)"/>
<path d="M0 0 C0.66 0.33 1.32 0.66 2 1 C0.70972038 5.30093205 -0.99744756 9.12350522 -3.09765625 13.0703125 C-4.01466752 15.03136691 -4.5448252 16.88836434 -5 19 C-5.99 19 -6.98 19 -8 19 C-8.185625 20.27875 -8.37125 21.5575 -8.5625 22.875 C-9.76180509 28.94917831 -12.02210813 34.49733853 -14.31494141 40.22167969 C-16.79404603 46.41229124 -18.99181864 52.63868017 -21 59 C-21.66 59 -22.32 59 -23 59 C-23.33 59.66 -23.66 60.32 -24 61 C-22.80711209 53.80013843 -20.81612501 47.27283134 -18.125 40.5 C-17.78597656 39.62730469 -17.44695312 38.75460937 -17.09765625 37.85546875 C-16.07573225 35.23266001 -15.0389654 32.61609815 -14 30 C-13.6685498 29.15236084 -13.33709961 28.30472168 -12.99560547 27.43139648 C-10.80970407 21.87873524 -8.43581108 16.45188757 -5.875 11.0625 C-5.52824219 10.32193359 -5.18148437 9.58136719 -4.82421875 8.81835938 C-3.35245864 5.70285185 -1.91891032 2.87836548 0 0 Z " fill="#015798" transform="translate(138,245)"/>
<path d="M0 0 C0.66 1.32 1.32 2.64 2 4 C17.18 4 32.36 4 48 4 C48.33 3.01 48.66 2.02 49 1 C49 1.66 49 2.32 49 3 C49.66 3 50.32 3 51 3 C51 4.32 51 5.64 51 7 C33.84 7 16.68 7 -1 7 C-0.67 4.69 -0.34 2.38 0 0 Z " fill="#004D94" transform="translate(537,531)"/>
<path d="M0 0 C-3 2 -3 2 -5 2 C-4.67 18.17 -4.34 34.34 -4 51 C-4.99 51 -5.98 51 -7 51 C-7 34.5 -7 18 -7 1 C-4.53721199 -0.231394 -2.7204945 -0.07159196 0 0 Z " fill="#0282E0" transform="translate(403,543)"/>
<path d="M0 0 C0.33 0 0.66 0 1 0 C1.02485162 5.4077115 1.04293147 10.81538921 1.05493164 16.22314453 C1.05993819 18.06006449 1.0667454 19.89698051 1.07543945 21.73388672 C1.08766697 24.38510108 1.09326523 27.03626243 1.09765625 29.6875 C1.10281754 30.49928711 1.10797882 31.31107422 1.11329651 32.14746094 C1.11378442 37.18734589 0.72096204 42.01064333 0 47 C-0.66 47 -1.32 47 -2 47 C-2.0505963 40.62796407 -2.08568957 34.2559797 -2.10986328 27.88378906 C-2.11993789 25.71482406 -2.13359798 23.54587269 -2.15087891 21.37695312 C-2.17506323 18.26428874 -2.18646832 15.15180349 -2.1953125 12.0390625 C-2.20563507 11.065065 -2.21595764 10.0910675 -2.22659302 9.08755493 C-2.22674408 8.18677216 -2.22689514 7.28598938 -2.22705078 6.35791016 C-2.231492 5.56293121 -2.23593323 4.76795227 -2.24050903 3.94888306 C-2 2 -2 2 0 0 Z " fill="#0075BF" transform="translate(369,392)"/>
<path d="M0 0 C0.70125 0.268125 1.4025 0.53625 2.125 0.8125 C1.568125 1.225 1.01125 1.6375 0.4375 2.0625 C-0.7071875 2.92875 -0.7071875 2.92875 -1.875 3.8125 C-3.1434375 4.67875 -3.1434375 4.67875 -4.4375 5.5625 C-7.90020046 8.75883888 -9.62167335 12.32883983 -10.09692383 16.98828125 C-10.13366512 19.31173082 -10.08856629 21.615523 -10 23.9375 C-9.7346296 33.44400418 -9.7346296 33.44400418 -10.875 37.8125 C-11.535 37.8125 -12.195 37.8125 -12.875 37.8125 C-12.99210979 33.81275019 -13.06255489 29.81344719 -13.125 25.8125 C-13.15851563 24.68714844 -13.19203125 23.56179688 -13.2265625 22.40234375 C-13.31589857 14.76411016 -12.58092844 9.06532025 -7.4621582 3.19116211 C-4.93352344 0.80100502 -3.52524366 -0.22990719 0 0 Z " fill="#0158A2" transform="translate(467.875,403.1875)"/>
<path d="M0 0 C0.33 0 0.66 0 1 0 C1.00586624 1.11055756 1.01173248 2.22111511 1.01777649 3.36532593 C1.07490205 13.81330958 1.14760987 24.26108305 1.23571491 34.70885277 C1.28050992 40.08062628 1.31974568 45.45232235 1.34643555 50.82421875 C1.37237771 56.00498797 1.41271494 61.18546058 1.46318626 66.36604691 C1.47991671 68.34602809 1.49139235 70.32606066 1.49761391 72.30610275 C1.50718814 75.07206329 1.535166 77.83725431 1.56762695 80.60302734 C1.56619186 81.42805252 1.56475677 82.2530777 1.5632782 83.10310364 C1.56982092 85.61011721 1.56982092 85.61011721 2 89 C2.99 89.66 3.98 90.32 5 91 C3.35 91 1.7 91 0 91 C-1.28038491 87.15884527 -1.0854614 83.57914318 -1.02172852 79.58129883 C-1.01212097 78.72254654 -1.00251343 77.86379425 -0.99261475 76.97901917 C-0.95961266 74.13827344 -0.91928485 71.29768092 -0.87890625 68.45703125 C-0.85460632 66.48834271 -0.8307627 64.51964848 -0.80735779 62.5509491 C-0.74450424 57.36741671 -0.67544112 52.18398481 -0.60510254 47.00054932 C-0.53443062 41.71200133 -0.46960681 36.42338206 -0.40429688 31.13476562 C-0.27526814 20.75643207 -0.13968199 10.37819525 0 0 Z " fill="#0381D3" transform="translate(397,360)"/>
<path d="M0 0 C-0.804375 0.28875 -1.60875 0.5775 -2.4375 0.875 C-5.1326468 1.73262568 -5.1326468 1.73262568 -6 4 C-8.57409894 5.08135663 -11.12310238 6.06578641 -13.75 7 C-15.18244205 7.52041959 -16.61473712 8.04124394 -18.046875 8.5625 C-18.72999756 8.8095166 -19.41312012 9.0565332 -20.11694336 9.31103516 C-23.64307099 10.6011599 -27.04240435 12.02004569 -30.4375 13.625 C-33.95493709 14.9826073 -36.27957095 15.27222652 -40 15 C-36.25964213 11.75835651 -31.96977018 10.14453157 -27.4375 8.3125 C-26.66986328 7.99216797 -25.90222656 7.67183594 -25.11132812 7.34179688 C-19.38416178 5 -19.38416178 5 -16 5 C-16 4.34 -16 3.68 -16 3 C-13.89936424 2.30178583 -11.79434263 1.61675528 -9.6875 0.9375 C-8.51574219 0.55464844 -7.34398437 0.17179687 -6.13671875 -0.22265625 C-3 -1 -3 -1 0 0 Z " fill="#005491" transform="translate(310,101)"/>
<path d="M0 0 C1.58289118 3.16578235 -0.00895726 6.06316498 -0.9375 9.3125 C-3.37862878 18.42543178 -3.58224816 26.82760067 -2.375 36.1875 C-2.25125 37.445625 -2.1275 38.70375 -2 40 C-2.66 40.66 -3.32 41.32 -4 42 C-8.17123865 29.48628405 -7.14868159 15.04490839 -2 3 C-1.34 2.01 -0.68 1.02 0 0 Z " fill="#0162A9" transform="translate(74,351)"/>
<path d="M0 0 C3.99205905 6.38729447 3.1570067 15.10947996 3.125 22.375 C3.12886719 23.27605469 3.13273437 24.17710937 3.13671875 25.10546875 C3.13542969 25.96527344 3.13414062 26.82507813 3.1328125 27.7109375 C3.13168457 28.48743652 3.13055664 29.26393555 3.12939453 30.06396484 C3 32 3 32 2 34 C1.34 34 0.68 34 0 34 C-1.04221016 22.62874277 -1.77676157 11.32685503 0 0 Z " fill="#0071BF" transform="translate(368,200)"/>
<path d="M0 0 C0.66 0 1.32 0 2 0 C2.73999023 2.1003418 2.73999023 2.1003418 3 5 C1.81699977 7.34178865 0.6581536 9.27352343 -0.83984375 11.39453125 C-1.24078751 11.98674973 -1.64173126 12.5789682 -2.05482483 13.18913269 C-3.33524877 15.07346178 -4.63584201 16.94279337 -5.9375 18.8125 C-6.81061355 20.08956006 -7.68237506 21.36754562 -8.55273438 22.64648438 C-10.68629844 25.77526783 -12.83805823 28.89076514 -15 32 C-16.32 31.67 -17.64 31.34 -19 31 C-18.3709375 30.12859375 -17.741875 29.2571875 -17.09375 28.359375 C-12.8211608 22.42368653 -8.57546027 16.46795753 -4.4375 10.4375 C-3.79683594 9.50808594 -3.15617187 8.57867187 -2.49609375 7.62109375 C-1.00450265 5.00788846 -0.39124102 2.96378471 0 0 Z " fill="#004A83" transform="translate(344,343)"/>
<path d="M0 0 C0.66 0.66 1.32 1.32 2 2 C1.79646345 4.13713381 1.58075428 6.27387408 1.30078125 8.40234375 C0.11210323 18.66819936 1.66416162 28.82615947 3 39 C1 38 1 38 0.1484375 35.9453125 C-1.67165158 29.308422 -2.28992418 23.03328564 -2.3125 16.1875 C-2.31781738 15.38779785 -2.32313477 14.5880957 -2.32861328 13.76416016 C-2.26997087 8.82070772 -1.57139358 4.68913861 0 0 Z " fill="#005596" transform="translate(174,526)"/>
<path d="M0 0 C-3.6732706 2.40175385 -5.7922312 1.78082308 -10 1 C-13.52097359 0.84170504 -17.03850805 0.86032689 -20.5625 0.875 C-21.49513672 0.87113281 -22.42777344 0.86726563 -23.38867188 0.86328125 C-24.74508789 0.86521484 -24.74508789 0.86521484 -26.12890625 0.8671875 C-26.94431885 0.86831543 -27.75973145 0.86944336 -28.59985352 0.87060547 C-31.14581827 1.00786122 -33.51474209 1.44342161 -36 2 C-35 0 -35 0 -32.91796875 -0.8515625 C-21.27567338 -4.14938007 -11.53709706 -3.4365821 0 0 Z " fill="#005FA0" transform="translate(239,494)"/>
<path d="M0 0 C1.875 0.5625 1.875 0.5625 4 2 C7.40644992 10.34580231 6.51710235 17.68877617 3.265625 25.93359375 C1.79496283 28.33476748 0.59262225 29.00325657 -2 30 C-1.67 28.35 -1.34 26.7 -1 25 C-0.34 25 0.32 25 1 25 C1.95010014 20.97917621 2.16509228 17.19000253 2.1875 13.0625 C2.20876953 11.28552734 2.20876953 11.28552734 2.23046875 9.47265625 C1.99882699 5.98232534 1.25530126 3.2498906 0 0 Z " fill="#0068AE" transform="translate(586,455)"/>
<path d="M0 0 C-3.10027433 2.55883886 -6.13721559 3.98708747 -9.875 5.4375 C-14.37819429 7.25409843 -18.05734689 9.21129414 -22 12 C-25.00832349 13.39922023 -26.66734965 14 -30 14 C-23.30468512 8.28531205 -9.3161927 -3.45044174 0 0 Z " fill="#005892" transform="translate(541,298)"/>
<path d="M0 0 C-0.66 0 -1.32 0 -2 0 C-2 0.66 -2 1.32 -2 2 C-2.60585938 2.21914062 -3.21171875 2.43828125 -3.8359375 2.6640625 C-13.56332181 6.34550333 -21.85201187 11.58175237 -30 18 C-25.95652971 8.62081633 -15.88108467 3.85380401 -7 0 C-3.86650268 -1.04449911 -3.01031744 -0.93423645 0 0 Z " fill="#014D85" transform="translate(513,116)"/>
<path d="M0 0 C0.66 0.33 1.32 0.66 2 1 C-0.97 9.25 -3.94 17.5 -7 26 C-7.66 26 -8.32 26 -9 26 C-9.33 26.66 -9.66 27.32 -10 28 C-8.72315259 18.841922 -5.37157104 10.54555426 -2 2 C-1.34 2 -0.68 2 0 2 C0 1.34 0 0.68 0 0 Z " fill="#01528D" transform="translate(124,278)"/>
<path d="M0 0 C0.33 1.32 0.66 2.64 1 4 C1.66 4 2.32 4 3 4 C2.67 5.98 2.34 7.96 2 10 C-6.25 9.67 -14.5 9.34 -23 9 C-23 9.66 -23 10.32 -23 11 C-25.64 10.67 -28.28 10.34 -31 10 C-31 9.67 -31 9.34 -31 9 C-20.16714522 7.22878871 -9.86734733 6.06802714 1 8 C0.67 5.36 0.34 2.72 0 0 Z " fill="#004B7D" transform="translate(572,287)"/>
<path d="M0 0 C1.10693359 3.77734375 1.10693359 3.77734375 0.14453125 5.78125 C-0.29503906 6.3484375 -0.73460937 6.915625 -1.1875 7.5 C-1.65542969 8.11230469 -2.12335938 8.72460938 -2.60546875 9.35546875 C-4 11 -4 11 -6 12.8125 C-8.13171893 15.14406758 -9.11319372 17.2076092 -10.4375 20.0625 C-12.33034683 24.05393787 -13.73437788 26.29375115 -18 28 C-16.59039199 24.04996512 -14.71536453 20.90516072 -12.3046875 17.48046875 C-11.58925781 16.45888672 -10.87382812 15.43730469 -10.13671875 14.38476562 C-9.01716797 12.80211914 -9.01716797 12.80211914 -7.875 11.1875 C-7.12089844 10.11306641 -6.36679687 9.03863281 -5.58984375 7.93164062 C-3.7310175 5.28457792 -1.86761303 2.64086702 0 0 Z " fill="#002943" transform="translate(270,455)"/>
<path d="M0 0 C1.85932097 7.43728386 0.01938805 14.73020303 -2 22 C-5.3 22.66 -8.6 23.32 -12 24 C-11.505 22.515 -11.505 22.515 -11 21 C-9.02 21 -7.04 21 -5 21 C-3.35 14.07 -1.7 7.14 0 0 Z " fill="#00477A" transform="translate(113,306)"/>
<path d="M0 0 C-2.78443706 1.85629138 -3.89584674 2.30663243 -7 3 C-8.71316406 3.49886719 -8.71316406 3.49886719 -10.4609375 4.0078125 C-11.41613281 4.28044922 -11.41613281 4.28044922 -12.390625 4.55859375 C-13.70841239 4.93473385 -15.02360345 5.32009785 -16.3359375 5.71484375 C-20.58303737 6.90505924 -23.71806967 7.04728327 -28 6 C-23.53279144 3.60512235 -18.89081575 2.53869738 -14 1.3125 C-12.64648438 0.95575195 -12.64648438 0.95575195 -11.265625 0.59179688 C-10.39421875 0.37201172 -9.5228125 0.15222656 -8.625 -0.07421875 C-7.83351562 -0.27619873 -7.04203125 -0.47817871 -6.2265625 -0.6862793 C-3.83803616 -1.02282056 -2.27584485 -0.74205272 0 0 Z " fill="#005B9B" transform="translate(246,330)"/>
<path d="M0 0 C0.66 0.66 1.32 1.32 2 2 C1.78417153 3.91102494 1.55786763 5.8217413 1.26611328 7.72265625 C0.82410834 11.50524529 1.1520531 15.21372731 1.4375 19 C1.48970703 19.77472656 1.54191406 20.54945313 1.59570312 21.34765625 C1.72366902 23.23224487 1.86085596 25.11620371 2 27 C1.34 27.33 0.68 27.66 0 28 C-2.02696014 18.80628796 -4.0546728 8.84948429 0 0 Z " fill="#015C9D" transform="translate(148,167)"/>
<path d="M0 0 C1.140625 1.64453125 1.140625 1.64453125 2 4 C1.171875 6.69921875 1.171875 6.69921875 -0.25 9.6875 C-2.55546765 14.80727149 -3.98942544 19.48777512 -5 25 C-7.2163138 21.6755293 -7.20185538 20.31507827 -6.62109375 16.46484375 C-5.17910867 10.74224888 -2.63426447 5.26852893 0 0 Z " fill="#005A9D" transform="translate(493,334)"/>
<path d="M0 0 C4.29 0 8.58 0 13 0 C13 0.66 13 1.32 13 2 C11.60587891 2.29003906 11.60587891 2.29003906 10.18359375 2.5859375 C1.02020085 4.51230285 1.02020085 4.51230285 -8 7 C-8.66 6.34 -9.32 5.68 -10 5 C-3.375 2 -3.375 2 0 2 C0 1.34 0 0.68 0 0 Z " fill="#025790" transform="translate(183,131)"/>
<path d="M0 0 C1.66611905 -0.042721 3.33382885 -0.04063832 5 0 C6 1 6 1 6.11352539 3.04125977 C6.10828857 3.91580811 6.10305176 4.79035645 6.09765625 5.69140625 C6.09443359 6.63564453 6.09121094 7.57988281 6.08789062 8.55273438 C6.07951172 9.54595703 6.07113281 10.53917969 6.0625 11.5625 C6.05798828 12.55958984 6.05347656 13.55667969 6.04882812 14.58398438 C6.03700007 17.05604849 6.02051849 19.52799518 6 22 C5.34 22 4.68 22 4 22 C3.83038614 19.95857606 3.66444404 17.91684689 3.5 15.875 C3.4071875 14.73804688 3.314375 13.60109375 3.21875 12.4296875 C3 9 3 9 3.0625 5.6875 C3.27058263 2.94977163 3.27058263 2.94977163 1.5 1.125 C1.005 0.75375 0.51 0.3825 0 0 Z " fill="#0075C2" transform="translate(364,543)"/>
<path d="M0 0 C0.66 0 1.32 0 2 0 C2 2.64 2 5.28 2 8 C-2.0271824 10.20536179 -5.43545749 11.45660208 -10 12 C-10 12.66 -10 13.32 -10 14 C-11.32 14.33 -12.64 14.66 -14 15 C-14 14.01 -14 13.02 -14 12 C-12.39967863 11.15930585 -10.79458829 10.32768495 -9.1875 9.5 C-8.29417969 9.0359375 -7.40085937 8.571875 -6.48046875 8.09375 C-4 7 -4 7 -1 7 C-0.67 4.69 -0.34 2.38 0 0 Z " fill="#0070BA" transform="translate(368,254)"/>
<path d="M0 0 C1.9375 0.375 1.9375 0.375 4 1 C4.33 1.66 4.66 2.32 5 3 C4.67 3.33 4.34 3.66 4 4 C4 4.99 4 5.98 4 7 C2.6875 9.6875 2.6875 9.6875 1 12 C0.01 12 -0.98 12 -2 12 C-2.0825 12.94875 -2.165 13.8975 -2.25 14.875 C-3 18 -3 18 -5.0625 19.375 C-5.701875 19.58125 -6.34125 19.7875 -7 20 C-5.30601202 15.37252065 -2.86772405 11.58160045 -0.14453125 7.5 C1.22462341 4.50935501 0.95445291 3.08955854 0 0 Z " fill="#0064A9" transform="translate(155,209)"/>
<path d="M0 0 C0.33 0 0.66 0 1 0 C1.33 3.63 1.66 7.26 2 11 C-0.77735289 12.87879755 -2.71125561 13.9587508 -6.0625 14.4375 C-9.62921327 15.12048765 -10.5283019 16.4485697 -13 19 C-15.75 19.75 -15.75 19.75 -18 20 C-13.83037323 15.13543544 -8.94122086 12.36641848 -3 10 C-2.01 10 -1.02 10 0 10 C0 6.7 0 3.4 0 0 Z " fill="#0061A2" transform="translate(368,440)"/>
<path d="M0 0 C0.99 0.33 1.98 0.66 3 1 C2.67 8.26 2.34 15.52 2 23 C1.34 23 0.68 23 0 23 C-0.19667089 20.47958689 -0.38254317 17.95911728 -0.5625 15.4375 C-0.61857422 14.73302734 -0.67464844 14.02855469 -0.73242188 13.30273438 C-1.05157754 8.68561569 -0.80878035 4.5591248 0 0 Z " fill="#007CCB" transform="translate(368,167)"/>
<path d="M0 0 C8.21676512 -0.49300591 18.06033247 0.37355498 25 5 C23.741875 5.020625 22.48375 5.04125 21.1875 5.0625 C20.47980469 5.07410156 19.77210938 5.08570313 19.04296875 5.09765625 C17 5 17 5 14 4 C11.94106379 3.77674186 9.87766347 3.59294241 7.8125 3.4375 C6.18248047 3.31181641 6.18248047 3.31181641 4.51953125 3.18359375 C3.68808594 3.12300781 2.85664063 3.06242187 2 3 C2 2.34 2 1.68 2 1 C1.34 0.67 0.68 0.34 0 0 Z " fill="#024B7F" transform="translate(379,45)"/>
<path d="M0 0 C2.82508272 4.23762408 2.53306677 8.06953672 2.75 13.0625 C2.80542969 13.98611328 2.86085938 14.90972656 2.91796875 15.86132812 C2.96050781 16.74369141 3.00304687 17.62605469 3.046875 18.53515625 C3.08651367 19.343479 3.12615234 20.15180176 3.16699219 20.98461914 C3 23 3 23 1 25 C-1.48063781 8.29157175 -1.48063781 8.29157175 0 0 Z " fill="#00518E" transform="translate(333,487)"/>
<path d="M0 0 C4.25403462 1.89068205 6.16442632 4.27104282 8.15722656 8.44140625 C9.86914116 13.63864407 9.68442409 19.07508388 9.75 24.5 C9.77964844 25.70398438 9.80929687 26.90796875 9.83984375 28.1484375 C9.91009581 31.09902393 9.96301486 34.04884056 10 37 C9.01 37.495 9.01 37.495 8 38 C7.98018066 37.23856689 7.96036133 36.47713379 7.93994141 35.69262695 C7.84450078 32.23224528 7.73489788 28.77245145 7.625 25.3125 C7.5940625 24.11431641 7.563125 22.91613281 7.53125 21.68164062 C7.49257813 20.52470703 7.45390625 19.36777344 7.4140625 18.17578125 C7.3826416 17.11270752 7.3512207 16.04963379 7.31884766 14.9543457 C6.8018799 10.16427927 5.43989021 7.28353157 2 4 C2 3.34 2 2.68 2 2 C1.34 2 0.68 2 0 2 C0 1.34 0 0.68 0 0 Z " fill="#0069CD" transform="translate(660,405)"/>
<path d="M0 0 C0.66 0 1.32 0 2 0 C1.9278125 0.680625 1.855625 1.36125 1.78125 2.0625 C1.06348001 9.5592088 0.94489191 16.91402657 1.0625 24.43359375 C1.0093479 27.46658541 0.72318716 30.06770207 0 33 C-2.11220553 29.56153787 -2.18670861 27.01839975 -2.01171875 23.02734375 C-1.96466797 21.88072266 -1.91761719 20.73410156 -1.86914062 19.55273438 C-1.80919922 18.35970703 -1.74925781 17.16667969 -1.6875 15.9375 C-1.63916016 14.74060547 -1.59082031 13.54371094 -1.54101562 12.31054688 C-1.14665686 3.43997058 -1.14665686 3.43997058 0 0 Z " fill="#017AD6" transform="translate(518,358)"/>
<path d="M0 0 C0 4.02245562 -1.42269491 7.34649631 -2.8125 11.0625 C-3.20405273 12.16174805 -3.20405273 12.16174805 -3.60351562 13.28320312 C-5.6404533 18.7603022 -5.6404533 18.7603022 -9 21 C-8.6610428 13.54294158 -5.30270738 5.30270738 0 0 Z " fill="#004A82" transform="translate(343,466)"/>
<path d="M0 0 C2.98064472 3.38709628 3.86306343 6.67964103 5 11 C5.391875 11.886875 5.78375 12.77375 6.1875 13.6875 C7.09990863 16.28435533 6.94176807 17.45722622 6 20 C3.82739633 16.7410945 2.64978913 13.67850305 1.3125 10 C0.62607422 8.14375 0.62607422 8.14375 -0.07421875 6.25 C-1 3 -1 3 0 0 Z " fill="#004E86" transform="translate(560,244)"/>
<path d="M0 0 C0.66 0 1.32 0 2 0 C2.05391993 1.79133978 2.09275571 3.58313899 2.125 5.375 C2.14820313 6.37273438 2.17140625 7.37046875 2.1953125 8.3984375 C2 11 2 11 0 13 C-2.1640625 13.1953125 -2.1640625 13.1953125 -4.625 13.125 C-5.44226563 13.10695313 -6.25953125 13.08890625 -7.1015625 13.0703125 C-7.72804688 13.04710937 -8.35453125 13.02390625 -9 13 C-7.68 11.68 -6.36 10.36 -5 9 C-5 9.66 -5 10.32 -5 11 C-4.34 11 -3.68 11 -3 11 C-2.67 10.01 -2.34 9.02 -2 8 C-1.67 8 -1.34 8 -1 8 C-0.67 5.36 -0.34 2.72 0 0 Z " fill="#005E9E" transform="translate(368,583)"/>
<path d="M0 0 C1.09375 3.7265625 1.09375 3.7265625 0.25 6.1875 C-1 8 -1 8 -4 9 C-5.21869929 11.50447516 -5.21869929 11.50447516 -6 14 C-6.66 13.67 -7.32 13.34 -8 13 C-6.40956621 7.91061189 -3.2553049 4.12543357 0 0 Z " fill="#005DA2" transform="translate(502,321)"/>
<path d="M0 0 C0.66 0.33 1.32 0.66 2 1 C0.44633255 5.97173583 -2.49754 10.18561608 -6 14 C-6.99 14.33 -7.98 14.66 -9 15 C-7.61219205 11.10993227 -5.7847773 8.03441292 -3.375 4.6875 C-2.74335938 3.80449219 -2.11171875 2.92148437 -1.4609375 2.01171875 C-0.97882813 1.34785156 -0.49671875 0.68398438 0 0 Z " fill="#005797" transform="translate(302,408)"/>
<path d="M0 0 C0 0.99 0 1.98 0 3 C-1.93108963 4.03290841 -3.870118 5.05098672 -5.8125 6.0625 C-6.89144531 6.63097656 -7.97039062 7.19945312 -9.08203125 7.78515625 C-12 9 -12 9 -15 8 C-11.0826156 4.57228865 -5.47848189 0 0 0 Z " fill="#015893" transform="translate(247,127)"/>
<path d="M0 0 C4.44936709 -0.36075949 4.44936709 -0.36075949 6.8125 1.1875 C8.36678206 3.55982525 8.22537188 5.22041345 8 8 C7.34 8 6.68 8 6 8 C6 12.29 6 16.58 6 21 C5.67 21 5.34 21 5 21 C5 15.06 5 9.12 5 3 C2.525 2.01 2.525 2.01 0 1 C0 0.67 0 0.34 0 0 Z " fill="#004C84" transform="translate(327,632)"/>
<path d="M0 0 C0 3.88291746 -1.37860494 5.46752535 -3.5 8.6875 C-4.1496875 9.68136719 -4.799375 10.67523438 -5.46875 11.69921875 C-5.9740625 12.45847656 -6.479375 13.21773438 -7 14 C-8.32 13.67 -9.64 13.34 -11 13 C-9.73549459 11.20386168 -8.46316512 9.41322966 -7.1875 7.625 C-6.47980469 6.62726563 -5.77210938 5.62953125 -5.04296875 4.6015625 C-3 2 -3 2 0 0 Z " fill="#005A99" transform="translate(336,361)"/>
<path d="M0 0 C2 1.375 2 1.375 4 3 C4 3.66 4 4.32 4 5 C5.216875 4.67 6.43375 4.34 7.6875 4 C10.87210604 3.19677787 13.6972843 2.79358027 17 3 C17.33 3.66 17.66 4.32 18 5 C12.10106757 6.79074734 8.06820868 7.08360869 2 6 C1.34 4.02 0.68 2.04 0 0 Z " fill="#005EA3" transform="translate(159,344)"/>
<path d="M0 0 C7.83098592 1.95774648 7.83098592 1.95774648 11 5 C11 5.66 11 6.32 11 7 C12.32 7 13.64 7 15 7 C15.66 8.65 16.32 10.3 17 12 C15.87851562 11.25943359 15.87851562 11.25943359 14.734375 10.50390625 C13.74953125 9.86324219 12.7646875 9.22257813 11.75 8.5625 C10.77546875 7.92441406 9.8009375 7.28632813 8.796875 6.62890625 C6.37945886 5.22099769 4.65821043 4.62830428 2 4 C0.75 1.9375 0.75 1.9375 0 0 Z " fill="#007ACA" transform="translate(246,232)"/>
<path d="M0 0 C0.33 0 0.66 0 1 0 C1 3.3 1 6.6 1 10 C-5.9796804 11.77149249 -12.96212627 13.47512736 -20 15 C-16.57174073 11.97760518 -13.19368891 11.0281834 -8.8125 9.875 C-4.59010251 9.06547746 -4.59010251 9.06547746 -1 7 C-0.63239269 4.67182036 -0.29758419 2.3381615 0 0 Z " fill="#003353" transform="translate(333,84)"/>
<path d="M0 0 C-1.32 0.33 -2.64 0.66 -4 1 C-4 1.66 -4 2.32 -4 3 C-14.37357631 6.62870159 -14.37357631 6.62870159 -20 5 C-16.93138727 3.33933899 -13.92435277 2.29822725 -10.5625 1.375 C-9.63566406 1.11460937 -8.70882813 0.85421875 -7.75390625 0.5859375 C-5.07608341 0.01618796 -2.72741575 -0.10889863 0 0 Z " fill="#00487E" transform="translate(265,324)"/>
<path d="M0 0 C12.66970387 2.89066059 12.66970387 2.89066059 18 6 C17.01 6.66 16.02 7.32 15 8 C14.360625 7.54625 13.72125 7.0925 13.0625 6.625 C9.65251547 4.81562045 6.67145101 4.22592599 2.890625 3.625 C2.26671875 3.41875 1.6428125 3.2125 1 3 C0.67 2.01 0.34 1.02 0 0 Z " fill="#014C82" transform="translate(206,131)"/>
<path d="M0 0 C1.98 0.66 3.96 1.32 6 2 C6 2.99 6 3.98 6 5 C7.65 5.33 9.3 5.66 11 6 C11 6.66 11 7.32 11 8 C11.66 8 12.32 8 13 8 C14.625 9.5 14.625 9.5 16 11 C15.67 11.66 15.34 12.32 15 13 C13.05710718 11.59027312 11.12085734 10.17270125 9.1875 8.75 C8.64029297 8.35425781 8.09308594 7.95851563 7.52929688 7.55078125 C4.4921581 5.30513925 2.07206244 3.16989201 0 0 Z " fill="#015FA5" transform="translate(487,572)"/>
<path d="M0 0 C0.33 0 0.66 0 1 0 C1 1.65 1 3.3 1 5 C1.99 5.33 2.98 5.66 4 6 C6.12710211 10.0966411 7.42160623 13.36233145 7 18 C6.71125 17.360625 6.4225 16.72125 6.125 16.0625 C5.17176549 13.84793921 5.17176549 13.84793921 3 13 C1.89453125 10.8203125 1.89453125 10.8203125 0.8125 8.125 C0.26529297 6.79855469 0.26529297 6.79855469 -0.29296875 5.4453125 C-1 3 -1 3 0 0 Z " fill="#00528E" transform="translate(462,531)"/>
<path d="M0 0 C-2.97 0.66 -5.94 1.32 -9 2 C-9 2.66 -9 3.32 -9 4 C-11.08164018 4.36398622 -13.16540562 4.71583287 -15.25 5.0625 C-16.99023438 5.35833984 -16.99023438 5.35833984 -18.765625 5.66015625 C-21.70676936 5.96918953 -23.24554447 5.79858264 -26 5 C-22.4210842 3.96322222 -18.83630603 2.94839001 -15.25 1.9375 C-13.72632813 1.49567383 -13.72632813 1.49567383 -12.171875 1.04492188 C-10.70234375 0.6340332 -10.70234375 0.6340332 -9.203125 0.21484375 C-8.30239258 -0.04176025 -7.40166016 -0.29836426 -6.47363281 -0.56274414 C-4 -1 -4 -1 0 0 Z " fill="#003359" transform="translate(326,309)"/>
<path d="M0 0 C0.66 0 1.32 0 2 0 C2 5.28 2 10.56 2 16 C1.34 16.33 0.68 16.66 0 17 C-2.125 4.25 -2.125 4.25 0 0 Z " fill="#0081CD" transform="translate(368,235)"/>
<path d="M0 0 C3.80149136 1.45398922 4.99364507 3.19679402 6.75 6.8125 C7.39195312 8.09060547 7.39195312 8.09060547 8.046875 9.39453125 C9.04444794 12.12150319 9.18599776 14.12220136 9 17 C6.80421527 14.32687076 5.80350799 12.32881882 5 9 C4.34 8.67 3.68 8.34 3 8 C0 2.57692308 0 2.57692308 0 0 Z " fill="#005894" transform="translate(542,209)"/>
<path d="M0 0 C0.99 0 1.98 0 3 0 C7 4.22857143 7 4.22857143 7 8 C7.66 8 8.32 8 9 8 C10.6875 10.3125 10.6875 10.3125 12 13 C11.67 13.99 11.34 14.98 11 16 C10.61328125 15.39671875 10.2265625 14.7934375 9.828125 14.171875 C7.14000203 10.04653777 4.55868815 6.42688489 1 3 C0.67 2.01 0.34 1.02 0 0 Z " fill="#005591" transform="translate(334,121)"/>
<path d="M0 0 C1.98 0 3.96 0 6 0 C6 0.66 6 1.32 6 2 C6.66 2 7.32 2 8 2 C8 3.32 8 4.64 8 6 C8.66 6 9.32 6 10 6 C11.76462683 9.08809695 12 10.23312136 12 14 C12.66 14.33 13.32 14.66 14 15 C13.01 15 12.02 15 11 15 C10.32845067 13.71086513 9.66291141 12.41859796 9 11.125 C8.62875 10.40570313 8.2575 9.68640625 7.875 8.9453125 C7 7 7 7 7 5 C6.34 4.67 5.68 4.34 5 4 C5 3.01 5 2.02 5 1 C3.35 1 1.7 1 0 1 C0 0.67 0 0.34 0 0 Z " fill="#005691" transform="translate(121,423)"/>
<path d="M0 0 C-1.65 0.33 -3.3 0.66 -5 1 C-5 1.66 -5 2.32 -5 3 C-10.16044765 4.512545 -13.65998179 5.33500455 -19 4 C-15.91450652 2.33354243 -12.87324675 1.26238404 -9.5 0.3125 C-8.5615625 0.04050781 -7.623125 -0.23148437 -6.65625 -0.51171875 C-3.99233534 -1.00140894 -2.52388628 -0.88693174 0 0 Z " fill="#00528B" transform="translate(218,337)"/>
<path d="M0 0 C1 2 1 2 0.36328125 4.2421875 C-3.10930987 12.94302918 -3.10930987 12.94302918 -7 16 C-7.33 15.34 -7.66 14.68 -8 14 C-6.75717988 11.54961707 -5.47117661 9.226675 -4.0625 6.875 C-3.48338867 5.88693359 -3.48338867 5.88693359 -2.89257812 4.87890625 C-1.93553422 3.248387 -0.96867185 1.62363816 0 0 Z " fill="#005088" transform="translate(147,229)"/>
<path d="M0 0 C0.33 0 0.66 0 1 0 C1 5.61 1 11.22 1 17 C1.66 17 2.32 17 3 17 C3.625 20.375 3.625 20.375 4 24 C3.34 24.66 2.68 25.32 2 26 C0.04458486 20.13375459 -0.12537977 14.81585875 -0.0625 8.6875 C-0.05798828 7.85154297 -0.05347656 7.01558594 -0.04882812 6.15429688 C-0.03710548 4.10283351 -0.01917203 2.05140727 0 0 Z " fill="#00345B" transform="translate(68,367)"/>
<path d="M0 0 C0.99 0.33 1.98 0.66 3 1 C3.92470553 5.71599818 4.22923777 8.67265609 2 13 C1.67 13 1.34 13 1 13 C1 10.03 1 7.06 1 4 C0.01 4.33 -0.98 4.66 -2 5 C-2 3.68 -2 2.36 -2 1 C-1.34 0.67 -0.68 0.34 0 0 Z " fill="#006FBC" transform="translate(367,363)"/>
<path d="M0 0 C2.6189021 2.6189021 3.22382048 4.52531645 3.25 8.125 C3 12 3 12 2 14 C1.34 14 0.68 14 0 14 C-0.19393875 11.85473901 -0.37998676 9.70876323 -0.5625 7.5625 C-0.71912109 5.77005859 -0.71912109 5.77005859 -0.87890625 3.94140625 C-0.91886719 2.97074219 -0.95882813 2.00007812 -1 1 C-0.67 0.67 -0.34 0.34 0 0 Z " fill="#007CCA" transform="translate(368,220)"/>
<path d="M0 0 C0.33 0.66 0.66 1.32 1 2 C0.37003675 3.68088326 -0.30445995 5.34517485 -1 7 C-1.57325041 9.09578246 -2.11442441 11.2005737 -2.625 13.3125 C-2.88539063 14.38113281 -3.14578125 15.44976562 -3.4140625 16.55078125 C-3.70410156 17.76314453 -3.70410156 17.76314453 -4 19 C-4.66 18.34 -5.32 17.68 -6 17 C-5.86558424 10.54804357 -3.04277302 5.58028852 0 0 Z " fill="#014980" transform="translate(480,137)"/>
<path d="M0 0 C1 3 1 3 0.125 4.8125 C-0.24625 5.534375 -0.6175 6.25625 -1 7 C-1.165 7.99 -1.33 8.98 -1.5 10 C-1.96029034 12.76174203 -2.61510403 14.59951366 -4 17 C-4.66 17 -5.32 17 -6 17 C-6.33 17.66 -6.66 18.32 -7 19 C-5.74646681 11.93463111 -3.43796251 6.28543527 0 0 Z " fill="#004171" transform="translate(130,261)"/>
<path d="M0 0 C-6.93 -0.33 -13.86 -0.66 -21 -1 C-21 -1.33 -21 -1.66 -21 -2 C-5.36842105 -4.02631579 -5.36842105 -4.02631579 0 0 Z " fill="#0062A8" transform="translate(660,405)"/>
<path d="M0 0 C0.33 0 0.66 0 1 0 C1 5.94 1 11.88 1 18 C-0.32 17.67 -1.64 17.34 -3 17 C-2.34 17 -1.68 17 -1 17 C-1.14308594 16.03900391 -1.14308594 16.03900391 -1.2890625 15.05859375 C-2.01412633 9.40140965 -1.9805089 5.35902409 0 0 Z " fill="#004F8A" transform="translate(607,382)"/>
<path d="M0 0 C-9.39473684 7 -9.39473684 7 -15 7 C-13.5433323 5.85204994 -12.08461063 4.70670581 -10.625 3.5625 C-9.40683594 2.60537109 -9.40683594 2.60537109 -8.1640625 1.62890625 C-4.91493732 -0.81673491 -3.84911174 -1.15473352 0 0 Z " fill="#00477C" transform="translate(526,305)"/>
<path d="M0 0 C2 2 2 2 2.1953125 4.1640625 C2.17210937 4.97617187 2.14890625 5.78828125 2.125 6.625 C2.10695313 7.44226563 2.08890625 8.25953125 2.0703125 9.1015625 C2.03550781 10.04128906 2.03550781 10.04128906 2 11 C-1.47823115 12.15941038 -3.45895578 11.70820884 -7 11 C-3.25 9 -3.25 9 -1 9 C-0.67 6.03 -0.34 3.06 0 0 Z " fill="#00528A" transform="translate(333,297)"/>
<path d="M0 0 C5.31427203 2.70923672 8.42148591 5.22864787 12 10 C11.01 10.495 11.01 10.495 10 11 C8 9.625 8 9.625 6 8 C6 7.34 6 6.68 6 6 C5.38125 5.690625 4.7625 5.38125 4.125 5.0625 C2.75 4.375 1.375 3.6875 0 3 C0 2.01 0 1.02 0 0 Z " fill="#0063AD" transform="translate(414,267)"/>
<path d="M0 0 C0.33 0 0.66 0 1 0 C1 4.29 1 8.58 1 13 C1.66 13 2.32 13 3 13 C3.33 14.98 3.66 16.96 4 19 C3.34 19.33 2.68 19.66 2 20 C1.01 19.01 0.02 18.02 -1 17 C-0.505 15.515 -0.505 15.515 0 14 C0.06970052 11.60509014 0.08448003 9.20832309 0.0625 6.8125 C0.05347656 5.54019531 0.04445313 4.26789063 0.03515625 2.95703125 C0.02355469 1.98121094 0.01195312 1.00539063 0 0 Z " fill="#00416B" transform="translate(455,497)"/>
<path d="M0 0 C0.99 0 1.98 0 3 0 C3 4.62 3 9.24 3 14 C2.34 14 1.68 14 1 14 C0.04738513 9.23692563 -0.08333357 4.8333472 0 0 Z " fill="#0072C2" transform="translate(454,480)"/>
<path d="M0 0 C-3.13334885 2.53078176 -6.24530187 4.51376532 -10 6 C-12.1875 5.07421875 -12.1875 5.07421875 -14 4 C-12.23494565 3.13395466 -10.46271926 2.28251358 -8.6875 1.4375 C-7.70136719 0.96183594 -6.71523438 0.48617187 -5.69921875 -0.00390625 C-3 -1 -3 -1 0 0 Z " fill="#015692" transform="translate(271,117)"/>
<path d="M0 0 C5.95948775 0.37246798 10.66916025 2.40106452 16 5 C16 5.33 16 5.66 16 6 C13.69 5.67 11.38 5.34 9 5 C9 4.34 9 3.68 9 3 C7.3603125 3.061875 7.3603125 3.061875 5.6875 3.125 C2 3 2 3 -1 1 C-0.67 0.67 -0.34 0.34 0 0 Z " fill="#014F89" transform="translate(534,115)"/>
<path d="M0 0 C0.33 0 0.66 0 1 0 C1 1.98 1 3.96 1 6 C1.66 6 2.32 6 3 6 C6.10096154 11.45769231 6.10096154 11.45769231 5.58984375 14.203125 C5.39519531 14.79609375 5.20054687 15.3890625 5 16 C3.9615789 14.28133783 2.94485365 12.54955402 1.9375 10.8125 C1.36902344 9.84957031 0.80054688 8.88664063 0.21484375 7.89453125 C-1.13815174 4.67083459 -1.04769518 3.27479579 0 0 Z " fill="#00548E" transform="translate(336,511)"/>
<path d="M0 0 C1.99996498 1.65168612 2.91796488 2.52102077 3.36328125 5.12109375 C3.34652344 5.88550781 3.32976563 6.64992188 3.3125 7.4375 C3.30863281 8.19933594 3.30476562 8.96117187 3.30078125 9.74609375 C2.9739386 12.19529127 2.21954601 13.86700917 1 16 C0.14701624 12.32612505 -0.10789471 8.9552607 -0.0625 5.1875 C-0.05347656 4.21167969 -0.04445313 3.23585938 -0.03515625 2.23046875 C-0.02355469 1.49441406 -0.01195312 0.75835937 0 0 Z " fill="#0061A3" transform="translate(605,365)"/>
<path d="M0 0 C-0.33 0.66 -0.66 1.32 -1 2 C-2.9609375 2.37890625 -2.9609375 2.37890625 -5.375 2.5625 C-8.19477465 2.78753088 -10.28663703 3.09554568 -13 4 C-13.66 3.34 -14.32 2.68 -15 2 C-13.25364835 1.46706165 -11.50272348 0.94909337 -9.75 0.4375 C-8.77546875 0.14746094 -7.8009375 -0.14257812 -6.796875 -0.44140625 C-4.03756068 -0.99249836 -2.6087176 -0.93789609 0 0 Z " fill="#005390" transform="translate(280,321)"/>
<path d="M0 0 C1.65 0.99 3.3 1.98 5 3 C6.65 2.01 8.3 1.02 10 0 C9.43628586 3.26954202 8.50037734 4.82575883 6 7 C5.01 6.67 4.02 6.34 3 6 C3 5.34 3 4.68 3 4 C2.01 3.67 1.02 3.34 0 3 C0 2.01 0 1.02 0 0 Z " fill="#005FA0" transform="translate(343,268)"/>
<path d="M0 0 C-4.49344368 4.64322514 -8.86698764 4.76182476 -15 5 C-10.00960599 1.15718605 -6.38852551 -0.29714072 0 0 Z " fill="#015895" transform="translate(285,111)"/>
<path d="M0 0 C-3.22146298 2.76125398 -6.01462013 4.56935081 -10 6 C-11.34050052 6.65213539 -12.67661368 7.31379969 -14 8 C-10.75150679 3.32216978 -6.05825152 -2.01941717 0 0 Z " fill="#004479" transform="translate(360,597)"/>
<path d="M0 0 C3.71080883 4.42442592 6.84577733 9.17403931 10 14 C8.0703125 13.625 8.0703125 13.625 6 13 C4.875 11 4.875 11 4 9 C3.34 8.67 2.68 8.34 2 8 C2 6.68 2 5.36 2 4 C1.34 4 0.68 4 0 4 C0 2.68 0 1.36 0 0 Z " fill="#0061A3" transform="translate(193,480)"/>
<path d="M0 0 C0 4.5391754 -1.71544556 8.40715249 -4.5625 11.9375 C-6 13 -6 13 -8 13 C-6.40956621 7.91061189 -3.2553049 4.12543357 0 0 Z " fill="#004478" transform="translate(320,382)"/>
<path d="M0 0 C0 0.33 0 0.66 0 1 C-14.78132118 2.33257403 -14.78132118 2.33257403 -21 1 C-21 0.67 -21 0.34 -21 0 C-13.87028851 -1.25818438 -7.18050184 -0.71148265 0 0 Z " fill="#003B63" transform="translate(534,114)"/>
<path d="M0 0 C0.66 1.32 1.32 2.64 2 4 C2.66 4 3.32 4 4 4 C5.32 8.29 6.64 12.58 8 17 C7.34 17 6.68 17 6 17 C5.73445313 16.31292969 5.46890625 15.62585938 5.1953125 14.91796875 C4.84210938 14.01691406 4.48890625 13.11585938 4.125 12.1875 C3.77695312 11.29417969 3.42890625 10.40085937 3.0703125 9.48046875 C2.01167845 6.82288409 2.01167845 6.82288409 0 4 C0 2.68 0 1.36 0 0 Z " fill="#0064AB" transform="translate(427,612)"/>
<path d="M0 0 C-2.35302007 2.35302007 -3.27435295 2.39392208 -6.5 2.75 C-7.2940625 2.84796875 -8.088125 2.9459375 -8.90625 3.046875 C-11 3 -11 3 -13 1 C-4.57142857 -1.42857143 -4.57142857 -1.42857143 0 0 Z " fill="#005FA2" transform="translate(293,318)"/>
<path d="M0 0 C3 1 3 1 4.6875 4.1875 C6.01535157 7.5347925 6.26451861 10.38491227 6 14 C3.74402173 11.74402173 3.03425808 9.95396133 1.875 7 C1.52179687 6.113125 1.16859375 5.22625 0.8046875 4.3125 C0 2 0 2 0 0 Z " fill="#005087" transform="translate(553,231)"/>
<path d="M0 0 C0 3.7185142 -0.85912168 4.31804606 -3.3125 7 C-3.92738281 7.680625 -4.54226563 8.36125 -5.17578125 9.0625 C-6.75544728 10.74026092 -8.35810926 12.38336911 -10 14 C-8.86699663 7.06035434 -5.47101802 4.18596495 0 0 Z " fill="#0179D6" transform="translate(490,127)"/>
<path d="M0 0 C0.66 0 1.32 0 2 0 C1.74279326 1.58560393 1.46861201 3.16845924 1.1875 4.75 C1.03667969 5.63171875 0.88585937 6.5134375 0.73046875 7.421875 C-0.05414248 10.1910911 -1.14595359 11.8259401 -3 14 C-3.92336298 11.46220363 -4.09242003 10.27633126 -3.22265625 7.67578125 C-2.83980469 6.89589844 -2.45695313 6.11601563 -2.0625 5.3125 C-0.62898253 2.76692566 -0.62898253 2.76692566 0 0 Z " fill="#004476" transform="translate(179,513)"/>
<path d="M0 0 C4.99275057 1.27721526 7.57611908 3.17330957 11 7 C6.24518354 6.42365861 3.02951788 4.44931479 -1 2 C-0.67 1.34 -0.34 0.68 0 0 Z " fill="#00589C" transform="translate(408,453)"/>
<path d="M0 0 C0.99 0 1.98 0 3 0 C3.33 1.32 3.66 2.64 4 4 C4.66 4 5.32 4 6 4 C6 4.66 6 5.32 6 6 C6.66 6 7.32 6 8 6 C8.33 7.65 8.66 9.3 9 11 C4.47951843 7.86077669 2.48454089 4.78504172 0 0 Z " fill="#025692" transform="translate(75,402)"/>
<path d="M0 0 C0.66 0 1.32 0 2 0 C0.61811547 3.21043882 -0.92421903 5.04936365 -3.625 7.25 C-4.57246094 8.03117188 -4.57246094 8.03117188 -5.5390625 8.828125 C-6.02117187 9.21484375 -6.50328125 9.6015625 -7 10 C-7.33 8.68 -7.66 7.36 -8 6 C-6.824375 5.87625 -6.824375 5.87625 -5.625 5.75 C-2.86319488 5.27785697 -2.86319488 5.27785697 -1.75 3 C-1.5025 2.34 -1.255 1.68 -1 1 C-0.67 0.67 -0.34 0.34 0 0 Z " fill="#047BD2" transform="translate(422,674)"/>
<path d="M0 0 C0.33 0 0.66 0 1 0 C1.03738281 1.27617187 1.07476562 2.55234375 1.11328125 3.8671875 C1.17892791 5.53648838 1.2453757 7.20575789 1.3125 8.875 C1.33505859 9.71675781 1.35761719 10.55851562 1.38085938 11.42578125 C1.41630859 12.23144531 1.45175781 13.03710938 1.48828125 13.8671875 C1.51446533 14.61081543 1.54064941 15.35444336 1.56762695 16.12060547 C1.86729591 18.40733826 1.86729591 18.40733826 5 20 C3.35 20 1.7 20 0 20 C-0.94148531 17.17554408 -1.07311695 15.85828382 -0.87890625 12.98828125 C-0.83056641 12.23095703 -0.78222656 11.47363281 -0.73242188 10.69335938 C-0.67634766 9.90767578 -0.62027344 9.12199219 -0.5625 8.3125 C-0.51029297 7.51521484 -0.45808594 6.71792969 -0.40429688 5.89648438 C-0.27480978 3.93063478 -0.13809959 1.96526335 0 0 Z " fill="#0270BD" transform="translate(397,431)"/>
<path d="M0 0 C0.33 0 0.66 0 1 0 C1.08159574 4.16138263 0.98248524 7.9472484 0 12 C-0.66 12 -1.32 12 -2 12 C-2 8.7 -2 5.4 -2 2 C-1.34 2 -0.68 2 0 2 C0 1.34 0 0.68 0 0 Z " fill="#006FB7" transform="translate(457,429)"/>
<path d="M0 0 C0.8971875 0.309375 0.8971875 0.309375 1.8125 0.625 C-1.79707611 3.9160841 -4.31387153 5.17163921 -9.1875 5.625 C-3.21691176 -0.55147059 -3.21691176 -0.55147059 0 0 Z " fill="#01558F" transform="translate(95.1875,332.375)"/>
<path d="M0 0 C1.2065625 0.0309375 1.2065625 0.0309375 2.4375 0.0625 C-4.7625 6.0625 -4.7625 6.0625 -9.5625 6.0625 C-9.5625 5.4025 -9.5625 4.7425 -9.5625 4.0625 C-8.593125 3.588125 -7.62375 3.11375 -6.625 2.625 C-1.55430328 0.03790984 -1.55430328 0.03790984 0 0 Z " fill="#017FDA" transform="translate(247.5625,583.9375)"/>
<path d="M0 0 C0.99 0.33 1.98 0.66 3 1 C3.25 7.625 3.25 7.625 1 11 C0.67 10.01 0.34 9.02 0 8 C0.33 7.34 0.66 6.68 1 6 C0.34 5.67 -0.32 5.34 -1 5 C-0.67 3.35 -0.34 1.7 0 0 Z " fill="#00518D" transform="translate(575,491)"/>
<path d="M0 0 C1.8125 0.125 1.8125 0.125 4 1 C7.146948 5.88319518 7.146948 5.88319518 6.6875 9.375 C6.460625 9.91125 6.23375 10.4475 6 11 C3 6.25 3 6.25 3 4 C2.34 4 1.68 4 1 4 C0.67 2.68 0.34 1.36 0 0 Z " fill="#005BA0" transform="translate(152,472)"/>
<path d="M0 0 C4.60470588 1.45411765 4.60470588 1.45411765 6.3125 3.8125 C7.09802451 6.31189617 7.14472595 8.39493282 7 11 C4.23455278 7.54319097 2.15078722 3.85658398 0 0 Z " fill="#005694" transform="translate(594,343)"/>
<path d="M0 0 C-4.2186994 2.1926135 -8.60185899 4.36894477 -13.4375 3.625 C-13.953125 3.41875 -14.46875 3.2125 -15 3 C-9.8531808 -0.16727335 -5.841744 -0.35050464 0 0 Z " fill="#007ED9" transform="translate(330,337)"/>
<path d="M0 0 C2.97 0.33 5.94 0.66 9 1 C9 1.66 9 2.32 9 3 C9.66 3.33 10.32 3.66 11 4 C9.54119891 3.85892253 8.08296449 3.71197585 6.625 3.5625 C5.40683594 3.44068359 5.40683594 3.44068359 4.1640625 3.31640625 C2 3 2 3 0 2 C0 1.34 0 0.68 0 0 Z " fill="#005C9A" transform="translate(399,594)"/>
<path d="M0 0 C1.44098611 0.76429661 2.87766054 1.53672555 4.3125 2.3125 C5.11300781 2.74175781 5.91351563 3.17101562 6.73828125 3.61328125 C8.83787272 4.90059554 10.35447721 6.18406708 12 8 C9.03 7.505 9.03 7.505 6 7 C6 6.34 6 5.68 6 5 C4.68 4.67 3.36 4.34 2 4 C2 3.34 2 2.68 2 2 C1.34 2 0.68 2 0 2 C0 1.34 0 0.68 0 0 Z " fill="#005290" transform="translate(286,569)"/>
<path d="M0 0 C0.65234375 1.765625 0.65234375 1.765625 1 4 C0.00390625 5.921875 0.00390625 5.921875 -1.4375 7.75 C-2.14712891 8.67039062 -2.14712891 8.67039062 -2.87109375 9.609375 C-3.24363281 10.06828125 -3.61617188 10.5271875 -4 11 C-4.65234375 9.234375 -4.65234375 9.234375 -5 7 C-4.00390625 5.078125 -4.00390625 5.078125 -2.5625 3.25 C-2.08941406 2.63640625 -1.61632812 2.0228125 -1.12890625 1.390625 C-0.75636719 0.93171875 -0.38382812 0.4728125 0 0 Z " fill="#005494" transform="translate(270,455)"/>
<path d="M0 0 C0.66 0 1.32 0 2 0 C1.67 3.96 1.34 7.92 1 12 C0.34 12 -0.32 12 -1 12 C-1.02712066 10.56260487 -1.04645067 9.12506137 -1.0625 7.6875 C-1.07410156 6.88699219 -1.08570313 6.08648437 -1.09765625 5.26171875 C-1 3 -1 3 0 0 Z " fill="#0185E2" transform="translate(518,358)"/>
<path d="M0 0 C9.59453303 2.89066059 9.59453303 2.89066059 13 6 C12.67 6.66 12.34 7.32 12 8 C11.38125 7.67 10.7625 7.34 10.125 7 C8.08981656 5.85806765 8.08981656 5.85806765 6 6 C6 5.01 6 4.02 6 3 C4.02 2.34 2.04 1.68 0 1 C0 0.67 0 0.34 0 0 Z " fill="#005A96" transform="translate(575,330)"/>
<path d="M0 0 C1.48285242 0.95262034 2.96118201 1.91228405 4.4375 2.875 C5.67306641 3.67550781 5.67306641 3.67550781 6.93359375 4.4921875 C9 6 9 6 10 8 C8.35 7.67 6.7 7.34 5 7 C5 6.34 5 5.68 5 5 C3.68 4.67 2.36 4.34 1 4 C0.67 2.68 0.34 1.36 0 0 Z " fill="#005796" transform="translate(307,239)"/>
<path d="M0 0 C2.97 0 5.94 0 9 0 C9 0.66 9 1.32 9 2 C5.37 2.33 1.74 2.66 -2 3 C-1.34 2.67 -0.68 2.34 0 2 C0 1.34 0 0.68 0 0 Z " fill="#0161A7" transform="translate(187,131)"/>
<path d="M0 0 C5.95703125 -0.29296875 5.95703125 -0.29296875 8 0 C8.99 0.99 9.98 1.98 11 3 C8.03 3 5.06 3 2 3 C2 2.34 2 1.68 2 1 C1.34 0.67 0.68 0.34 0 0 Z " fill="#0367AD" transform="translate(379,45)"/>
<path d="M0 0 C0.88935377 3.303314 1.46274105 6.62294375 2 10 C0.68 10 -0.64 10 -2 10 C-2.25 3.375 -2.25 3.375 0 0 Z " fill="#0076C9" transform="translate(272,551)"/>
<path d="M0 0 C4.43379675 2.21689838 6.46636932 4.77728219 9 9 C6.525 8.01 6.525 8.01 4 7 C4 6.34 4 5.68 4 5 C3.34 5 2.68 5 2 5 C2 4.01 2 3.02 2 2 C1.34 2 0.68 2 0 2 C0 1.34 0 0.68 0 0 Z " fill="#015EA1" transform="translate(419,460)"/>
<path d="M0 0 C-1.79036458 0.9765625 -3.58072917 1.953125 -5.37109375 2.9296875 C-7.16618315 3.91410024 -7.16618315 3.91410024 -8 6 C-10.5625 6.625 -10.5625 6.625 -13 7 C-4.84931507 -1.61643836 -4.84931507 -1.61643836 0 0 Z " fill="#002F49" transform="translate(363,453)"/>
<path d="M0 0 C5.30721977 2.35876434 6.83639731 5.91130316 9 11 C8.01 11.495 8.01 11.495 7 12 C6.731875 11.236875 6.46375 10.47375 6.1875 9.6875 C5.04199033 7.09503074 4.00288478 5.91184456 2 4 C2 3.34 2 2.68 2 2 C1.34 2 0.68 2 0 2 C0 1.34 0 0.68 0 0 Z " fill="#005392" transform="translate(660,405)"/>
<path d="M0 0 C1.11375 0.3403125 1.11375 0.3403125 2.25 0.6875 C-0.41905904 2.87994135 -2.40741704 3.9327232 -5.75 4.6875 C-6.74 5.3475 -7.73 6.0075 -8.75 6.6875 C-6.97710463 2.40300285 -4.94524284 -0.56195941 0 0 Z " fill="#004277" transform="translate(467.75,403.3125)"/>
<path d="M0 0 C3.63094642 2.64960955 5.89851796 5.01824456 8 9 C7.01 9 6.02 9 5 9 C5 8.34 5 7.68 5 7 C4.01 6.67 3.02 6.34 2 6 C0 3 0 3 0 0 Z " fill="#0165A8" transform="translate(613,314)"/>
<path d="M0 0 C7.57142857 4.14285714 7.57142857 4.14285714 10 7 C7.03 6.505 7.03 6.505 4 6 C4 5.34 4 4.68 4 4 C2.68 3.67 1.36 3.34 0 3 C0 2.01 0 1.02 0 0 Z " fill="#005392" transform="translate(289,226)"/>
<path d="M0 0 C3.63 1.98 7.26 3.96 11 6 C7 7 7 7 5 6 C5 5.34 5 4.68 5 4 C3.35 3.67 1.7 3.34 0 3 C0 2.01 0 1.02 0 0 Z " fill="#005491" transform="translate(244,197)"/>
<path d="M0 0 C0.33 0 0.66 0 1 0 C1 4.29 1 8.58 1 13 C-2.18518519 6.62962963 -2.18518519 6.62962963 -1.0625 2.8125 C-0.711875 1.884375 -0.36125 0.95625 0 0 Z " fill="#0080D9" transform="translate(369,191)"/>
<path d="M0 0 C-0.66 0 -1.32 0 -2 0 C-2 0.66 -2 1.32 -2 2 C-5.83887763 3.48320272 -8.06204091 4.22419163 -12 3 C-10.5682384 2.30062798 -9.12932968 1.61587282 -7.6875 0.9375 C-6.48673828 0.36322266 -6.48673828 0.36322266 -5.26171875 -0.22265625 C-3 -1 -3 -1 0 0 Z " fill="#00406F" transform="translate(294,107)"/>
<path d="M0 0 C0.66 0.33 1.32 0.66 2 1 C1.125 5.75 1.125 5.75 0 8 C-0.66 8 -1.32 8 -2 8 C-2.33 8.99 -2.66 9.98 -3 11 C-2.53199289 6.94393835 -2.12046792 3.53411321 0 0 Z " fill="#014A80" transform="translate(337,73)"/>
<path d="M0 0 C1.125 1.75 1.125 1.75 2 4 C1.17133982 6.8174446 0.41463847 7.75609502 -2.125 9.25 C-2.74375 9.4975 -3.3625 9.745 -4 10 C-3.67 8.35 -3.34 6.7 -3 5 C-2.34 5 -1.68 5 -1 5 C-0.67 3.35 -0.34 1.7 0 0 Z " fill="#00598C" transform="translate(588,475)"/>
<path d="M0 0 C0.99 0 1.98 0 3 0 C3.33 1.32 3.66 2.64 4 4 C4.66 4 5.32 4 6 4 C6.33 5.98 6.66 7.96 7 10 C4.3513141 6.80331012 2.06007659 3.60513403 0 0 Z " fill="#004D85" transform="translate(172,503)"/>
<path d="M0 0 C3 3 3 3 3.07421875 5.48046875 C2.94660156 6.37378906 2.81898438 7.26710938 2.6875 8.1875 C2.56761719 9.08855469 2.44773437 9.98960937 2.32421875 10.91796875 C2.21722656 11.60503906 2.11023438 12.29210937 2 13 C1.67 13 1.34 13 1 13 C0.67 8.71 0.34 4.42 0 0 Z " fill="#0074BF" transform="translate(545,488)"/>
<path d="M0 0 C1.21236328 0.01353516 1.21236328 0.01353516 2.44921875 0.02734375 C3.37154297 0.04474609 3.37154297 0.04474609 4.3125 0.0625 C0.27957255 2.2969598 -3.13717434 2.60746743 -7.6875 3.0625 C-7.6875 2.4025 -7.6875 1.7425 -7.6875 1.0625 C-4.80538698 0.10179566 -2.98899956 -0.04331883 0 0 Z " fill="#007FDA" transform="translate(310.6875,340.9375)"/>
<path d="M0 0 C2.31 0.33 4.62 0.66 7 1 C7 1.66 7 2.32 7 3 C7.66 3.33 8.32 3.66 9 4 C6.03 3.67 3.06 3.34 0 3 C0 2.01 0 1.02 0 0 Z " fill="#005C96" transform="translate(137,330)"/>
<path d="M0 0 C0.33 0.66 0.66 1.32 1 2 C-0.25 5.5625 -0.25 5.5625 -2 9 C-2.99 9.33 -3.98 9.66 -5 10 C-3.66511872 6.40608886 -2.03977277 3.24509304 0 0 Z " fill="#004377" transform="translate(153,219)"/>
<path d="M0 0 C2.97 1.65 5.94 3.3 9 5 C5 6 5 6 2.25 4.75 C1.5075 4.1725 0.765 3.595 0 3 C0 2.01 0 1.02 0 0 Z " fill="#005492" transform="translate(280,220)"/>
<path d="M0 0 C1.11375 0.598125 2.2275 1.19625 3.375 1.8125 C4.00148438 2.14894531 4.62796875 2.48539062 5.2734375 2.83203125 C7 4 7 4 9 7 C7.35 6.67 5.7 6.34 4 6 C4 5.34 4 4.68 4 4 C2.68 3.67 1.36 3.34 0 3 C0 2.01 0 1.02 0 0 Z " fill="#01548F" transform="translate(550,121)"/>
<path d="M0 0 C-0.66 0 -1.32 0 -2 0 C-2 0.66 -2 1.32 -2 2 C-5.3 2.33 -8.6 2.66 -12 3 C-8.61613364 -0.38386636 -4.56431325 -1.75550509 0 0 Z " fill="#014778" transform="translate(513,116)"/>
<path d="M0 0 C5.75 3.625 5.75 3.625 8 7 C6.68 7 5.36 7 4 7 C0 2.77777778 0 2.77777778 0 0 Z " fill="#015697" transform="translate(416,601)"/>
<path d="M0 0 C0.33 0.66 0.66 1.32 1 2 C1.66 2 2.32 2 3 2 C3.33 5.3 3.66 8.6 4 12 C2 11 2 11 0.875 7.6875 C0 4 0 4 0 0 Z " fill="#003F70" transform="translate(173,553)"/>
<path d="M0 0 C1.43836751 0.11458693 2.87570966 0.24209116 4.3125 0.375 C5.51326172 0.47941406 5.51326172 0.47941406 6.73828125 0.5859375 C9 1 9 1 12 3 C8.94736336 3.98120464 7.05263664 3.98120464 4 3 C4 2.34 4 1.68 4 1 C2.68 0.67 1.36 0.34 0 0 Z " fill="#004374" transform="translate(227,492)"/>
<path d="M0 0 C0.66 0.33 1.32 0.66 2 1 C-1.625 5.875 -1.625 5.875 -5 7 C-3.75023244 3.34683329 -3.32901247 2.21934164 0 0 Z " fill="#005CA1" transform="translate(257,476)"/>
<path d="M0 0 C2.40575607 2.18517099 3.79535581 4.25919671 5.1875 7.1875 C5.53167969 7.90292969 5.87585938 8.61835938 6.23046875 9.35546875 C6.48441406 9.89816406 6.73835937 10.44085938 7 11 C6.34 11 5.68 11 5 11 C4.896875 10.360625 4.79375 9.72125 4.6875 9.0625 C4.460625 8.381875 4.23375 7.70125 4 7 C3.01 6.67 2.02 6.34 1 6 C0.67 4.02 0.34 2.04 0 0 Z " fill="#005DA2" transform="translate(163,433)"/>
<path d="M0 0 C1.21236328 0.04060547 1.21236328 0.04060547 2.44921875 0.08203125 C3.06410156 0.11683594 3.67898438 0.15164063 4.3125 0.1875 C0.27957255 2.4219598 -3.13717434 2.73246743 -7.6875 3.1875 C-5.26849268 0.20484049 -3.789448 -0.16475861 0 0 Z " fill="#007DD8" transform="translate(263.6875,352.8125)"/>
<path d="M0 0 C3.93673644 1.31224548 6.22719294 2.91910327 9 6 C4.70042176 5.52226908 2.78280018 4.29813355 0 1 C0 0.67 0 0.34 0 0 Z " fill="#00528F" transform="translate(146,334)"/>
<path d="M0 0 C0.66 0.33 1.32 0.66 2 1 C0.515 4.96 0.515 4.96 -1 9 C-1.66 9 -2.32 9 -3 9 C-2.67 6.69 -2.34 4.38 -2 2 C-1.34 2 -0.68 2 0 2 C0 1.34 0 0.68 0 0 Z " fill="#016BB6" transform="translate(124,278)"/>
<path d="M0 0 C1.32 0 2.64 0 4 0 C4 0.66 4 1.32 4 2 C5.32 2.33 6.64 2.66 8 3 C8.33 4.32 8.66 5.64 9 7 C2.57142857 2.85714286 2.57142857 2.85714286 0 0 Z " fill="#005B9C" transform="translate(302,272)"/>
<path d="M0 0 C5 2 5 2 10 4 C9.67 5.32 9.34 6.64 9 8 C7.49712782 6.85793642 5.99776716 5.71125043 4.5 4.5625 C3.6646875 3.92441406 2.829375 3.28632813 1.96875 2.62890625 C1.3190625 2.09136719 0.669375 1.55382812 0 1 C0 0.67 0 0.34 0 0 Z " fill="#005B9A" transform="translate(277,253)"/>
<path d="M0 0 C1.32 0 2.64 0 4 0 C4 0.66 4 1.32 4 2 C5.32 2 6.64 2 8 2 C8.66 3.65 9.32 5.3 10 7 C8.33073546 6.02526874 6.66464358 5.04510211 5 4.0625 C4.071875 3.51722656 3.14375 2.97195312 2.1875 2.41015625 C1.465625 1.94480469 0.74375 1.47945312 0 1 C0 0.67 0 0.34 0 0 Z " fill="#005A9A" transform="translate(253,237)"/>
<path d="M0 0 C0.556875 0.28875 1.11375 0.5775 1.6875 0.875 C4.08494645 2.0413253 6.51596939 3.0339881 9 4 C9 4.66 9 5.32 9 6 C6.0625 5.625 6.0625 5.625 3 5 C2.67 4.34 2.34 3.68 2 3 C1.01 2.34 0.02 1.68 -1 1 C-0.67 0.67 -0.34 0.34 0 0 Z " fill="#005590" transform="translate(271,214)"/>
<path d="M0 0 C1.48484412 0.39595843 2.9628831 0.81750706 4.4375 1.25 C5.26121094 1.48203125 6.08492188 1.7140625 6.93359375 1.953125 C9 3 9 3 9.78515625 5.109375 C9.85605469 5.73328125 9.92695313 6.3571875 10 7 C8.33073546 6.02526874 6.66464358 5.04510211 5 4.0625 C4.071875 3.51722656 3.14375 2.97195313 2.1875 2.41015625 C1.465625 1.94480469 0.74375 1.47945312 0 1 C0 0.67 0 0.34 0 0 Z " fill="#0067AC" transform="translate(296,611)"/>
<path d="M0 0 C0 3.90838866 -1.50567876 5.11594107 -4 8 C-4 6.02 -4 4.04 -4 2 C-2.68 1.34 -1.36 0.68 0 0 Z " fill="#0080DA" transform="translate(321,431)"/>
<path d="M0 0 C-2.90092502 1.93395001 -3.89674737 2.30131941 -7.1875 2.625 C-8.445625 2.74875 -9.70375 2.8725 -11 3 C-8.21756596 -1.17365106 -4.53441502 -0.22300402 0 0 Z " fill="#017ED8" transform="translate(209,368)"/>
<path d="M0 0 C0.75 1.75 0.75 1.75 1 4 C-0.9375 6.25 -0.9375 6.25 -3 8 C-3.33 7.01 -3.66 6.02 -4 5 C-2.0625 2.3125 -2.0625 2.3125 0 0 Z " fill="#004C86" transform="translate(79,344)"/>
<path d="M0 0 C4 1 4 1 6 4 C5.67 5.32 5.34 6.64 5 8 C2.525 4.04 2.525 4.04 0 0 Z " fill="#005C9C" transform="translate(338,334)"/>
<path d="M0 0 C0.99 0 1.98 0 3 0 C4.75 1.75 4.75 1.75 6 4 C5.578125 6.140625 5.578125 6.140625 5 8 C4.16382818 6.8562364 3.33113541 5.70992861 2.5 4.5625 C2.0359375 3.92441406 1.571875 3.28632813 1.09375 2.62890625 C0 1 0 1 0 0 Z " fill="#015C9D" transform="translate(479,188)"/>
<path d="M0 0 C2.5 1.1875 2.5 1.1875 5 3 C5.3125 5.6875 5.3125 5.6875 5 8 C2.20127563 5.47211993 0.54226981 3.79588866 0 0 Z " fill="#00518D" transform="translate(469,549)"/>
<path d="M0 0 C2.79872437 2.52788007 4.45773019 4.20411134 5 8 C2 7 2 7 0 4 C0 2.68 0 1.36 0 0 Z " fill="#0065AD" transform="translate(186,470)"/>
<path d="M0 0 C-3.53411321 2.12046792 -6.94393835 2.53199289 -11 3 C-8.21756596 -1.17365106 -4.53441502 -0.22300402 0 0 Z " fill="#007DD7" transform="translate(283,349)"/>
<path d="M0 0 C2 1.375 2 1.375 4 3 C4 3.66 4 4.32 4 5 C5.65 5 7.3 5 9 5 C9 5.33 9 5.66 9 6 C6.69 6 4.38 6 2 6 C1.34 4.02 0.68 2.04 0 0 Z " fill="#004F87" transform="translate(159,344)"/>
<path d="M0 0 C0.99 0.33 1.98 0.66 3 1 C0.525 4.465 0.525 4.465 -2 8 C-2.33 6.68 -2.66 5.36 -3 4 C-2.34 4 -1.68 4 -1 4 C-0.67 2.68 -0.34 1.36 0 0 Z " fill="#017FDB" transform="translate(528,340)"/>
<path d="M0 0 C-0.66 0.66 -1.32 1.32 -2 2 C-5.625 1.625 -5.625 1.625 -9 1 C-5.64919071 -1.10976881 -3.77897651 -1.0497157 0 0 Z " fill="#00599C" transform="translate(301,316)"/>
<path d="M0 0 C-2.55991624 2.01136276 -5.04590299 3.62845496 -8 5 C-8 4.01 -8 3.02 -8 2 C-3.71900826 -1.23966942 -3.71900826 -1.23966942 0 0 Z " fill="#003E6D" transform="translate(362,264)"/>
<path d="M0 0 C3.91402949 1.26941497 5.79072873 2.51167694 8 6 C5.21788056 5.62403791 3.4120716 5.32681541 1.1875 3.5625 C0 2 0 2 0 0 Z " fill="#00578D" transform="translate(299,233)"/>
<path d="M0 0 C-2.93828597 2.50298434 -5.17902761 3.46930939 -9 4 C-9 3.34 -9 2.68 -9 2 C-5.86501708 0.14223235 -3.62528568 -0.20140476 0 0 Z " fill="#017FDB" transform="translate(223,224)"/>
<path d="M0 0 C3.96 1.98 3.96 1.98 8 4 C8 4.33 8 4.66 8 5 C4.28400809 5.20086443 3.22791555 5.1519437 0 3 C0 2.01 0 1.02 0 0 Z " fill="#00528E" transform="translate(336,603)"/>
<path d="M0 0 C1.0326802 2.78823655 1.04509293 3.8677274 0.0625 6.75 C-0.288125 7.4925 -0.63875 8.235 -1 9 C-1.33 9 -1.66 9 -2 9 C-2.125 5.625 -2.125 5.625 -2 2 C-1.34 1.34 -0.68 0.68 0 0 Z " fill="#037DD7" transform="translate(664,521)"/>
<path d="M0 0 C1.32 0.33 2.64 0.66 4 1 C4 2.32 4 3.64 4 5 C4.66 5.33 5.32 5.66 6 6 C5.01 6 4.02 6 3 6 C2.01 4.02 1.02 2.04 0 0 Z " fill="#005992" transform="translate(159,483)"/>
<path d="M0 0 C2.96865509 2.54456151 4.3619751 5.48994665 6 9 C5.34 9 4.68 9 4 9 C4 8.34 4 7.68 4 7 C3.01 6.67 2.02 6.34 1 6 C0.67 4.02 0.34 2.04 0 0 Z " fill="#00599A" transform="translate(177,456)"/>
<path d="M0 0 C1.5 1.1875 1.5 1.1875 3 3 C3.1875 5.6875 3.1875 5.6875 3 8 C0.9375 6.25 0.9375 6.25 -1 4 C-0.75 1.75 -0.75 1.75 0 0 Z " fill="#005692" transform="translate(144,455)"/>
<path d="M0 0 C1.32 0 2.64 0 4 0 C4 0.66 4 1.32 4 2 C5.32 2.33 6.64 2.66 8 3 C7.67 3.99 7.34 4.98 7 6 C5.83054208 5.19152271 4.66449539 4.37810888 3.5 3.5625 C2.8503125 3.11003906 2.200625 2.65757812 1.53125 2.19140625 C1.0259375 1.79824219 0.520625 1.40507812 0 1 C0 0.67 0 0.34 0 0 Z " fill="#0060A8" transform="translate(294,266)"/>
<path d="M0 0 C2.15377564 2.62198774 3.40072174 4.64404172 4 8 C3.34 8 2.68 8 2 8 C2 7.34 2 6.68 2 6 C1.34 6 0.68 6 0 6 C-0.38218767 4.34385343 -0.71395102 2.67542976 -1 1 C-0.67 0.67 -0.34 0.34 0 0 Z " fill="#0068B3" transform="translate(560,244)"/>
<path d="M0 0 C2.97 0.495 2.97 0.495 6 1 C6 1.66 6 2.32 6 3 C6.66 3 7.32 3 8 3 C7.67 3.66 7.34 4.32 7 5 C4.69 4.01 2.38 3.02 0 2 C0 1.34 0 0.68 0 0 Z " fill="#016BB4" transform="translate(206,131)"/>
<path d="M0 0 C4.875 4.75 4.875 4.75 6 7 C4.125 6.6875 4.125 6.6875 2 6 C0 3 0 3 0 0 Z " fill="#0068AB" transform="translate(420,60)"/>
<path d="" fill="#009AC8" transform="translate(0,0)"/>
<path d="M0 0 C2 1 2 1 2 1 Z " fill="#00A8C6" transform="translate(392,694)"/>
<path d="M0 0 C2 1 2 1 2 1 Z " fill="#0075C6" transform="translate(585,599)"/>
<path d="" fill="#00366D" transform="translate(0,0)"/>
<path d="M0 0 C2 1 2 1 2 1 Z " fill="#00C6C6" transform="translate(250,359)"/>
<path d="M0 0 C2 1 2 1 2 1 Z " fill="#00C6C6" transform="translate(282,351)"/>
<path d="M0 0 C2 1 2 1 2 1 Z " fill="#0091C6" transform="translate(313,343)"/>
<path d="" fill="#009AC8" transform="translate(0,0)"/>
<path d="" fill="#00B7B7" transform="translate(0,0)"/>
<path d="" fill="#00B7B7" transform="translate(0,0)"/>
<path d="" fill="#00B7B7" transform="translate(0,0)"/>
<path d="" fill="#005BB7" transform="translate(0,0)"/>
<path d="" fill="#007AB7" transform="translate(0,0)"/>
<path d="" fill="#00B7B7" transform="translate(0,0)"/>
<path d="" fill="#00B7B7" transform="translate(0,0)"/>
<path d="" fill="#00B7B7" transform="translate(0,0)"/>
<path d="" fill="#005BB7" transform="translate(0,0)"/>
<path d="" fill="#00B7B7" transform="translate(0,0)"/>
<path d="" fill="#00B7B7" transform="translate(0,0)"/>
<path d="" fill="#005BB7" transform="translate(0,0)"/>
<path d="" fill="#007AB7" transform="translate(0,0)"/>
<path d="" fill="#00B7B7" transform="translate(0,0)"/>
<path d="" fill="#00B7B7" transform="translate(0,0)"/>
<path d="" fill="#005BB7" transform="translate(0,0)"/>
<path d="" fill="#00B7B7" transform="translate(0,0)"/>
<path d="" fill="#005BB7" transform="translate(0,0)"/>
<path d="" fill="#00B7B7" transform="translate(0,0)"/>
<path d="" fill="#005BB7" transform="translate(0,0)"/>
<path d="" fill="#00B7B7" transform="translate(0,0)"/>
<path d="" fill="#00B7B7" transform="translate(0,0)"/>
<path d="" fill="#005BB7" transform="translate(0,0)"/>
<path d="" fill="#00B7B7" transform="translate(0,0)"/>
<path d="" fill="#00B7B7" transform="translate(0,0)"/>
<path d="" fill="#005BB7" transform="translate(0,0)"/>
<path d="" fill="#005BB7" transform="translate(0,0)"/>
<path d="" fill="#00B7B7" transform="translate(0,0)"/>
<path d="" fill="#00B7B7" transform="translate(0,0)"/>
<path d="" fill="#00B7B7" transform="translate(0,0)"/>
<path d="" fill="#00B7B7" transform="translate(0,0)"/>
<path d="" fill="#00B7B7" transform="translate(0,0)"/>
<path d="" fill="#00B7B7" transform="translate(0,0)"/>
<path d="" fill="#005BB7" transform="translate(0,0)"/>
<path d="" fill="#00B7B7" transform="translate(0,0)"/>
<path d="" fill="#00B7B7" transform="translate(0,0)"/>
<path d="" fill="#005BB7" transform="translate(0,0)"/>
<path d="" fill="#00B7B7" transform="translate(0,0)"/>
<path d="" fill="#00B7B7" transform="translate(0,0)"/>
<path d="" fill="#00B7B7" transform="translate(0,0)"/>
<path d="" fill="#00B7B7" transform="translate(0,0)"/>
<path d="" fill="#00B7B7" transform="translate(0,0)"/>
<path d="" fill="#00B7B7" transform="translate(0,0)"/>
<path d="" fill="#005BB7" transform="translate(0,0)"/>
<path d="" fill="#00B7B7" transform="translate(0,0)"/>
<path d="" fill="#00B7B7" transform="translate(0,0)"/>
<path d="" fill="#00B7B7" transform="translate(0,0)"/>
</svg>
